  0
SECTION
  2
HEADER
  9
$ACADVER
  1
AC1032
  9
$ACADMAINTVER
 90
      155
  9
$DWGCODEPAGE
  3
ANSI_1252
  9
$REQUIREDVERSIONS
160
                 0
  9
$INSBASE
 10
0.0
 20
0.0
 30
0.0
  9
$EXTMIN
 10
1.000000000000000E+20
 20
1.000000000000000E+20
 30
1.000000000000000E+20
  9
$EXTMAX
 10
-1.000000000000000E+20
 20
-1.000000000000000E+20
 30
-1.000000000000000E+20
  9
$LIMMIN
 10
0.0
 20
0.0
  9
$LIMMAX
 10
12.0
 20
9.0
  9
$ORTHOMODE
 70
     0
  9
$REGENMODE
 70
     1
  9
$FILLMODE
 70
     1
  9
$QTEXTMODE
 70
     0
  9
$MIRRTEXT
 70
     0
  9
$LTSCALE
 40
1.0
  9
$ATTMODE
 70
     1
  9
$TEXTSIZE
 40
0.2
  9
$TRACEWID
 40
0.05
  9
$TEXTSTYLE
  7
Standard
  9
$CLAYER
  8
0
  9
$CELTYPE
  6
ByLayer
  9
$CECOLOR
 62
   256
  9
$CELTSCALE
 40
1.0
  9
$DISPSILH
 70
     0
  9
$DIMSCALE
 40
1.0
  9
$DIMASZ
 40
0.18
  9
$DIMEXO
 40
0.0625
  9
$DIMDLI
 40
0.38
  9
$DIMRND
 40
0.0
  9
$DIMDLE
 40
0.0
  9
$DIMEXE
 40
0.18
  9
$DIMTP
 40
0.0
  9
$DIMTM
 40
0.0
  9
$DIMTXT
 40
0.18
  9
$DIMCEN
 40
0.09
  9
$DIMTSZ
 40
0.0
  9
$DIMTOL
 70
     0
  9
$DIMLIM
 70
     0
  9
$DIMTIH
 70
     1
  9
$DIMTOH
 70
     1
  9
$DIMSE1
 70
     0
  9
$DIMSE2
 70
     0
  9
$DIMTAD
 70
     0
  9
$DIMZIN
 70
     0
  9
$DIMBLK
  1

  9
$DIMASO
 70
     1
  9
$DIMSHO
 70
     1
  9
$DIMPOST
  1

  9
$DIMAPOST
  1

  9
$DIMALT
 70
     0
  9
$DIMALTD
 70
     2
  9
$DIMALTF
 40
25.4
  9
$DIMLFAC
 40
1.0
  9
$DIMTOFL
 70
     0
  9
$DIMTVP
 40
0.0
  9
$DIMTIX
 70
     0
  9
$DIMSOXD
 70
     0
  9
$DIMSAH
 70
     0
  9
$DIMBLK1
  1

  9
$DIMBLK2
  1

  9
$DIMSTYLE
  2
Standard
  9
$DIMCLRD
 70
     0
  9
$DIMCLRE
 70
     0
  9
$DIMCLRT
 70
     0
  9
$DIMTFAC
 40
1.0
  9
$DIMGAP
 40
0.09
  9
$DIMJUST
 70
     0
  9
$DIMSD1
 70
     0
  9
$DIMSD2
 70
     0
  9
$DIMTOLJ
 70
     1
  9
$DIMTZIN
 70
     0
  9
$DIMALTZ
 70
     0
  9
$DIMALTTZ
 70
     0
  9
$DIMUPT
 70
     0
  9
$DIMDEC
 70
     4
  9
$DIMTDEC
 70
     4
  9
$DIMALTU
 70
     2
  9
$DIMALTTD
 70
     2
  9
$DIMTXSTY
  7
Standard
  9
$DIMAUNIT
 70
     0
  9
$DIMADEC
 70
     0
  9
$DIMALTRND
 40
0.0
  9
$DIMAZIN
 70
     0
  9
$DIMDSEP
 70
    46
  9
$DIMATFIT
 70
     3
  9
$DIMFRAC
 70
     0
  9
$DIMLDRBLK
  1

  9
$DIMLUNIT
 70
     2
  9
$DIMLWD
 70
    -2
  9
$DIMLWE
 70
    -2
  9
$DIMTMOVE
 70
     0
  9
$DIMFXL
 40
1.0
  9
$DIMFXLON
 70
     0
  9
$DIMJOGANG
 40
0.7853981633974483
  9
$DIMTFILL
 70
     0
  9
$DIMTFILLCLR
 70
     0
  9
$DIMARCSYM
 70
     0
  9
$DIMLTYPE
  6

  9
$DIMLTEX1
  6

  9
$DIMLTEX2
  6

  9
$DIMTXTDIRECTION
 70
     0
  9
$LUNITS
 70
     2
  9
$LUPREC
 70
     4
  9
$SKETCHINC
 40
0.1
  9
$FILLETRAD
 40
0.0
  9
$AUNITS
 70
     0
  9
$AUPREC
 70
     0
  9
$MENU
  1
.
  9
$ELEVATION
 40
0.0
  9
$PELEVATION
 40
0.0
  9
$THICKNESS
 40
0.0
  9
$LIMCHECK
 70
     0
  9
$CHAMFERA
 40
0.0
  9
$CHAMFERB
 40
0.0
  9
$CHAMFERC
 40
0.0
  9
$CHAMFERD
 40
0.0
  9
$SKPOLY
 70
     0
  9
$TDCREATE
 40
2459699.476226852
  9
$TDUCREATE
 40
2459699.392893519
  9
$TDUPDATE
 40
2459699.476226852
  9
$TDUUPDATE
 40
2459699.392893519
  9
$TDINDWG
 40
0.0000115741
  9
$TDUSRTIMER
 40
0.0000115741
  9
$USRTIMER
 70
     1
  9
$ANGBASE
 50
0.0
  9
$ANGDIR
 70
     0
  9
$PDMODE
 70
     0
  9
$PDSIZE
 40
0.0
  9
$PLINEWID
 40
0.0
  9
$SPLFRAME
 70
     0
  9
$SPLINETYPE
 70
     6
  9
$SPLINESEGS
 70
     8
  9
$HANDSEED
  5
A7
  9
$SURFTAB1
 70
     6
  9
$SURFTAB2
 70
     6
  9
$SURFTYPE
 70
     6
  9
$SURFU
 70
     6
  9
$SURFV
 70
     6
  9
$UCSBASE
  2

  9
$UCSNAME
  2

  9
$UCSORG
 10
0.0
 20
0.0
 30
0.0
  9
$UCSXDIR
 10
1.0
 20
0.0
 30
0.0
  9
$UCSYDIR
 10
0.0
 20
1.0
 30
0.0
  9
$UCSORTHOREF
  2

  9
$UCSORTHOVIEW
 70
     0
  9
$UCSORGTOP
 10
0.0
 20
0.0
 30
0.0
  9
$UCSORGBOTTOM
 10
0.0
 20
0.0
 30
0.0
  9
$UCSORGLEFT
 10
0.0
 20
0.0
 30
0.0
  9
$UCSORGRIGHT
 10
0.0
 20
0.0
 30
0.0
  9
$UCSORGFRONT
 10
0.0
 20
0.0
 30
0.0
  9
$UCSORGBACK
 10
0.0
 20
0.0
 30
0.0
  9
$PUCSBASE
  2

  9
$PUCSNAME
  2

  9
$PUCSORG
 10
0.0
 20
0.0
 30
0.0
  9
$PUCSXDIR
 10
1.0
 20
0.0
 30
0.0
  9
$PUCSYDIR
 10
0.0
 20
1.0
 30
0.0
  9
$PUCSORTHOREF
  2

  9
$PUCSORTHOVIEW
 70
     0
  9
$PUCSORGTOP
 10
0.0
 20
0.0
 30
0.0
  9
$PUCSORGBOTTOM
 10
0.0
 20
0.0
 30
0.0
  9
$PUCSORGLEFT
 10
0.0
 20
0.0
 30
0.0
  9
$PUCSORGRIGHT
 10
0.0
 20
0.0
 30
0.0
  9
$PUCSORGFRONT
 10
0.0
 20
0.0
 30
0.0
  9
$PUCSORGBACK
 10
0.0
 20
0.0
 30
0.0
  9
$USERI1
 70
     0
  9
$USERI2
 70
     0
  9
$USERI3
 70
     0
  9
$USERI4
 70
     0
  9
$USERI5
 70
     0
  9
$USERR1
 40
0.0
  9
$USERR2
 40
0.0
  9
$USERR3
 40
0.0
  9
$USERR4
 40
0.0
  9
$USERR5
 40
0.0
  9
$WORLDVIEW
 70
     1
  9
$SHADEDGE
 70
     3
  9
$SHADEDIF
 70
    70
  9
$TILEMODE
 70
     1
  9
$MAXACTVP
 70
    64
  9
$PINSBASE
 10
0.0
 20
0.0
 30
0.0
  9
$PLIMCHECK
 70
     0
  9
$PEXTMIN
 10
1.000000000000000E+20
 20
1.000000000000000E+20
 30
1.000000000000000E+20
  9
$PEXTMAX
 10
-1.000000000000000E+20
 20
-1.000000000000000E+20
 30
-1.000000000000000E+20
  9
$PLIMMIN
 10
0.0
 20
0.0
  9
$PLIMMAX
 10
12.0
 20
9.0
  9
$UNITMODE
 70
     0
  9
$VISRETAIN
 70
     1
  9
$PLINEGEN
 70
     0
  9
$PSLTSCALE
 70
     1
  9
$TREEDEPTH
 70
  3020
  9
$CMLSTYLE
  2
Standard
  9
$CMLJUST
 70
     0
  9
$CMLSCALE
 40
1.0
  9
$PROXYGRAPHICS
 70
     1
  9
$MEASUREMENT
 70
     0
  9
$CELWEIGHT
370
    -1
  9
$ENDCAPS
280
     0
  9
$JOINSTYLE
280
     0
  9
$LWDISPLAY
290
     1
  9
$INSUNITS
 70
     0
  9
$HYPERLINKBASE
  1

  9
$STYLESHEET
  1

  9
$XEDIT
290
     1
  9
$CEPSNTYPE
380
     0
  9
$PSTYLEMODE
290
     1
  9
$FINGERPRINTGUID
  2
{5DA94421-D54B-2A43-A04E-87C9B5094BB4}
  9
$VERSIONGUID
  2
{D76FFCB3-D360-2041-8043-4506A348780C}
  9
$EXTNAMES
290
     1
  9
$PSVPSCALE
 40
0.0
  9
$OLESTARTUP
290
     0
  9
$SORTENTS
280
   127
  9
$INDEXCTL
280
     0
  9
$HIDETEXT
280
     1
  9
$XCLIPFRAME
280
     2
  9
$HALOGAP
280
     0
  9
$OBSCOLOR
 70
   257
  9
$OBSLTYPE
280
     0
  9
$INTERSECTIONDISPLAY
280
     0
  9
$INTERSECTIONCOLOR
 70
   257
  9
$DIMASSOC
280
     2
  9
$PROJECTNAME
  1

  9
$CAMERADISPLAY
290
     0
  9
$LENSLENGTH
 40
50.0
  9
$CAMERAHEIGHT
 40
0.0
  9
$STEPSPERSEC
 40
2.0
  9
$STEPSIZE
 40
6.0
  9
$3DDWFPREC
 40
2.0
  9
$PSOLWIDTH
 40
0.25
  9
$PSOLHEIGHT
 40
4.0
  9
$LOFTANG1
 40
1.570796326794896
  9
$LOFTANG2
 40
1.570796326794896
  9
$LOFTMAG1
 40
0.0
  9
$LOFTMAG2
 40
0.0
  9
$LOFTPARAM
 70
     7
  9
$LOFTNORMALS
280
     1
  9
$LATITUDE
 40
37.795
  9
$LONGITUDE
 40
-122.394
  9
$NORTHDIRECTION
 40
0.0
  9
$TIMEZONE
 70
 -8000
  9
$LIGHTGLYPHDISPLAY
280
     1
  9
$TILEMODELIGHTSYNCH
280
     1
  9
$CMATERIAL
347
11
  9
$SOLIDHIST
280
     0
  9
$SHOWHIST
280
     1
  9
$DWFFRAME
280
     2
  9
$DGNFRAME
280
     0
  9
$REALWORLDSCALE
290
     1
  9
$INTERFERECOLOR
 62
     1
  9
$INTERFEREOBJVS
345
33
  9
$INTERFEREVPVS
346
30
  9
$CSHADOW
280
     0
  9
$SHADOWPLANELOCATION
 40
0.0
  0
ENDSEC
  0
SECTION
  2
CLASSES
  0
CLASS
  1
ACDBDICTIONARYWDFLT
  2
AcDbDictionaryWithDefault
  3
ObjectDBX Classes
 90
        0
 91
        1
280
     0
281
     0
  0
CLASS
  1
MATERIAL
  2
AcDbMaterial
  3
ObjectDBX Classes
 90
     1153
 91
        3
280
     0
281
     0
  0
CLASS
  1
VISUALSTYLE
  2
AcDbVisualStyle
  3
ObjectDBX Classes
 90
     4095
 91
       24
280
     0
281
     0
  0
CLASS
  1
SCALE
  2
AcDbScale
  3
ObjectDBX Classes
 90
     1153
 91
       17
280
     0
281
     0
  0
CLASS
  1
TABLESTYLE
  2
AcDbTableStyle
  3
ObjectDBX Classes
 90
     4095
 91
        1
280
     0
281
     0
  0
CLASS
  1
MLEADERSTYLE
  2
AcDbMLeaderStyle
  3
ACDB_MLEADERSTYLE_CLASS
 90
     4095
 91
        1
280
     0
281
     0
  0
CLASS
  1
ACDBSECTIONVIEWSTYLE
  2
AcDbSectionViewStyle
  3
ObjectDBX Classes
 90
     1025
 91
        1
280
     0
281
     0
  0
CLASS
  1
ACDBDETAILVIEWSTYLE
  2
AcDbDetailViewStyle
  3
ObjectDBX Classes
 90
     1025
 91
        1
280
     0
281
     0
  0
CLASS
  1
DICTIONARYVAR
  2
AcDbDictionaryVar
  3
ObjectDBX Classes
 90
        0
 91
        5
280
     0
281
     0
  0
CLASS
  1
CELLSTYLEMAP
  2
AcDbCellStyleMap
  3
ObjectDBX Classes
 90
     1152
 91
        1
280
     0
281
     0
  0
ENDSEC
  0
SECTION
  2
TABLES
  0
TABLE
  2
VPORT
  5
8
330
0
100
AcDbSymbolTable
 70
     1
  0
VPORT
  5
57
330
8
100
AcDbSymbolTableRecord
100
AcDbViewportTableRecord
  2
*Active
 70
     0
 10
0.0
 20
0.0
 11
1.0
 21
1.0
 12
0.0
 22
0.0
 13
0.0
 23
0.0
 14
1.0
 24
1.0
 15
0.0
 25
0.0
 16
0.0
 26
0.0
 36
1.0
 17
640.0
 27
-512.0
 37
0.0
 40
1044.48
 41
1.25
 42
50.0
 43
0.0
 44
0.0
 50
0.0
 51
0.0
 71
     0
 72
   100
 73
     1
 74
     0
 75
     1
 76
     0
 77
     0
 78
     0
281
     0
 65
     1
110
0.0
120
0.0
130
0.0
111
1.0
121
0.0
131
0.0
112
0.0
122
1.0
132
0.0
 79
     0
146
0.0
 60
     3
 61
     5
292
     1
282
     1
141
0.0
142
0.0
 63
   250
421
  3355443
  0
ENDTAB
  0
TABLE
  2
LTYPE
  5
5
330
0
100
AcDbSymbolTable
 70
     1
  0
LTYPE
  5
5B
330
5
100
AcDbSymbolTableRecord
100
AcDbLinetypeTableRecord
  2
ByBlock
 70
     0
  3

 72
    65
 73
     0
 40
0.0
  0
LTYPE
  5
5C
330
5
100
AcDbSymbolTableRecord
100
AcDbLinetypeTableRecord
  2
ByLayer
 70
     0
  3

 72
    65
 73
     0
 40
0.0
  0
LTYPE
  5
5D
330
5
100
AcDbSymbolTableRecord
100
AcDbLinetypeTableRecord
  2
Continuous
 70
     0
  3
Solid line
 72
    65
 73
     0
 40
0.0
  0
ENDTAB
  0
TABLE
  2
LAYER
  5
2
330
0
100
AcDbSymbolTable
 70
     7
  0
LAYER
  5
54
330
2
100
AcDbSymbolTableRecord
100
AcDbLayerTableRecord
  2
0
 70
     0
 62
     7
  6
Continuous
370
    -3
390
F
347
21
348
0
  0
LAYER
  5
78
330
2
100
AcDbSymbolTableRecord
100
AcDbLayerTableRecord
  2
Layer 1
 70
     0
 62
     7
  6
Continuous
370
     0
390
F
347
21
348
0
  0
LAYER
  5
79
330
2
100
AcDbSymbolTableRecord
100
AcDbLayerTableRecord
  2
grond
 70
     0
 62
     7
  6
Continuous
370
     0
390
F
347
21
348
0
  0
LAYER
  5
7C
330
2
100
AcDbSymbolTableRecord
100
AcDbLayerTableRecord
  2
huizen
 70
     0
 62
     7
  6
Continuous
370
     0
390
F
347
21
348
0
  0
LAYER
  5
89
330
2
100
AcDbSymbolTableRecord
100
AcDbLayerTableRecord
  2
vlammen
 70
     0
 62
     7
  6
Continuous
370
     0
390
F
347
21
348
0
  0
LAYER
  5
9C
330
2
100
AcDbSymbolTableRecord
100
AcDbLayerTableRecord
  2
persoon1
 70
     0
 62
     7
  6
Continuous
370
     0
390
F
347
21
348
0
  0
LAYER
  5
9D
330
2
100
AcDbSymbolTableRecord
100
AcDbLayerTableRecord
  2
persoon2
 70
     0
 62
     7
  6
Continuous
370
     0
390
F
347
21
348
0
  0
ENDTAB
  0
TABLE
  2
STYLE
  5
3
330
0
100
AcDbSymbolTable
 70
     2
  0
STYLE
  5
55
330
3
100
AcDbSymbolTableRecord
100
AcDbTextStyleTableRecord
  2
Standard
 70
     0
 40
0.0
 41
1.0
 50
0.0
 71
     0
 42
0.2
  3
txt
  4

  0
STYLE
  5
5A
330
3
100
AcDbSymbolTableRecord
100
AcDbTextStyleTableRecord
  2
Annotative
 70
     0
 40
0.0
 41
1.0
 50
0.0
 71
     0
 42
0.2
  3
txt
  4

1001
AcadAnnotative
1000
AnnotativeData
1002
{
1070
     1
1070
     1
1002
}
  0
ENDTAB
  0
TABLE
  2
VIEW
  5
6
330
0
100
AcDbSymbolTable
 70
     0
  0
ENDTAB
  0
TABLE
  2
UCS
  5
7
330
0
100
AcDbSymbolTable
 70
     0
  0
ENDTAB
  0
TABLE
  2
APPID
  5
9
330
0
100
AcDbSymbolTable
 70
     2
  0
APPID
  5
56
330
9
100
AcDbSymbolTableRecord
100
AcDbRegAppTableRecord
  2
ACAD
 70
     0
  0
APPID
  5
5E
330
9
100
AcDbSymbolTableRecord
100
AcDbRegAppTableRecord
  2
AcadAnnotative
 70
     0
  0
ENDTAB
  0
TABLE
  2
DIMSTYLE
  5
A
330
0
100
AcDbSymbolTable
 70
     2
100
AcDbDimStyleTable
 71
     0
  0
DIMSTYLE
105
58
330
A
100
AcDbSymbolTableRecord
100
AcDbDimStyleTableRecord
  2
Standard
 70
     0
340
55
  0
DIMSTYLE
105
59
330
A
100
AcDbSymbolTableRecord
100
AcDbDimStyleTableRecord
  2
Annotative
 70
     0
340
55
1001
AcadAnnotative
1000
AnnotativeData
1002
{
1070
     1
1070
     1
1002
}
  0
ENDTAB
  0
TABLE
  2
BLOCK_RECORD
  5
1
330
0
100
AcDbSymbolTable
 70
     1
  0
BLOCK_RECORD
  5
70
330
1
100
AcDbSymbolTableRecord
100
AcDbBlockTableRecord
  2
*Model_Space
340
73
 70
     0
280
     1
281
     0
  0
BLOCK_RECORD
  5
6C
330
1
100
AcDbSymbolTableRecord
100
AcDbBlockTableRecord
  2
*Paper_Space
340
6F
 70
     0
280
     1
281
     0
  0
BLOCK_RECORD
  5
74
330
1
100
AcDbSymbolTableRecord
100
AcDbBlockTableRecord
  2
*Paper_Space0
340
77
 70
     0
280
     1
281
     0
  0
ENDTAB
  0
ENDSEC
  0
SECTION
  2
BLOCKS
  0
BLOCK
  5
71
330
70
100
AcDbEntity
  8
0
100
AcDbBlockBegin
  2
*Model_Space
 70
     0
 10
0.0
 20
0.0
 30
0.0
  3
*Model_Space
  1

  0
ENDBLK
  5
72
330
70
100
AcDbEntity
  8
0
100
AcDbBlockEnd
  0
BLOCK
  5
6D
330
6C
100
AcDbEntity
 67
     1
  8
0
100
AcDbBlockBegin
  2
*Paper_Space
 70
     0
 10
0.0
 20
0.0
 30
0.0
  3
*Paper_Space
  1

  0
ENDBLK
  5
6E
330
6C
100
AcDbEntity
 67
     1
  8
0
100
AcDbBlockEnd
  0
BLOCK
  5
75
330
74
100
AcDbEntity
 67
     1
  8
0
100
AcDbBlockBegin
  2
*Paper_Space0
 70
     0
 10
0.0
 20
0.0
 30
0.0
  3
*Paper_Space0
  1

  0
ENDBLK
  5
76
330
74
100
AcDbEntity
 67
     1
  8
0
100
AcDbBlockEnd
  0
ENDSEC
  0
SECTION
  2
ENTITIES
  0
LWPOLYLINE
  5
7A
330
70
100
AcDbEntity
  8
grond
100
AcDbPolyline
 90
        4
 70
     1
 43
0.0
 10
1280.0
 20
-641.0
 10
0.0
 20
-641.0
 10
0.0
 20
-578.0
 10
1280.0
 20
-578.0
  0
HATCH
  5
7B
330
70
100
AcDbEntity
  8
grond
 62
    37
420
  9200185
440
 33554687
100
AcDbHatch
 10
0.0
 20
0.0
 30
0.0
210
0.0
220
0.0
230
1.0
  2
SOLID
 70
     1
 71
     1
 91
        1
 92
        1
 93
        4
 72
     1
 10
1280.0
 20
-641.0
 11
0.0
 21
-641.0
 72
     1
 10
0.0
 20
-641.0
 11
0.0
 21
-578.0
 72
     1
 10
0.0
 20
-578.0
 11
1280.0
 21
-578.0
 72
     1
 10
1280.0
 20
-578.0
 11
1280.0
 21
-641.0
 97
        1
330
7A
 75
     2
 76
     1
 98
        1
 10
0.0
 20
0.0
450
        0
451
        0
460
0.0
461
0.0
452
        0
462
0.0
453
        0
470

  0
LWPOLYLINE
  5
7D
330
70
100
AcDbEntity
  8
huizen
100
AcDbPolyline
 90
        4
 70
     1
 43
0.0
 10
320.0
 20
-582.0
 10
86.0
 20
-582.0
 10
86.0
 20
-359.0
 10
320.0
 20
-359.0
  0
HATCH
  5
7E
330
70
100
AcDbEntity
  8
huizen
 62
   252
420
 10061429
440
 33554687
100
AcDbHatch
 10
0.0
 20
0.0
 30
0.0
210
0.0
220
0.0
230
1.0
  2
SOLID
 70
     1
 71
     1
 91
        1
 92
        1
 93
        4
 72
     1
 10
320.0
 20
-582.0
 11
86.0
 21
-582.0
 72
     1
 10
86.0
 20
-582.0
 11
86.0
 21
-359.0
 72
     1
 10
86.0
 20
-359.0
 11
320.0
 21
-359.0
 72
     1
 10
320.0
 20
-359.0
 11
320.0
 21
-582.0
 97
        1
330
7D
 75
     2
 76
     1
 98
        1
 10
0.0
 20
0.0
450
        0
451
        0
460
0.0
461
0.0
452
        0
462
0.0
453
        0
470

  0
LWPOLYLINE
  5
7F
330
70
100
AcDbEntity
  8
huizen
100
AcDbPolyline
 90
        3
 70
     1
 43
0.0
 10
202.5993649053889
 20
-178.0
 10
85.19872981077787
 20
-358.5
 10
320.0
 20
-358.5
  0
HATCH
  5
80
330
70
100
AcDbEntity
  8
huizen
 62
   251
420
  7562071
440
 33554687
100
AcDbHatch
 10
0.0
 20
0.0
 30
0.0
210
0.0
220
0.0
230
1.0
  2
SOLID
 70
     1
 71
     1
 91
        1
 92
        1
 93
        3
 72
     1
 10
202.5993649053889
 20
-178.0
 11
85.19872981077787
 21
-358.5
 72
     1
 10
85.19872981077787
 20
-358.5
 11
320.0
 21
-358.5
 72
     1
 10
320.0
 20
-358.5
 11
202.5993649053889
 21
-178.0
 97
        1
330
7F
 75
     2
 76
     1
 98
        1
 10
0.0
 20
0.0
450
        0
451
        0
460
0.0
461
0.0
452
        0
462
0.0
453
        0
470

  0
LWPOLYLINE
  5
81
330
70
100
AcDbEntity
  8
huizen
100
AcDbPolyline
 90
        4
 70
     1
 43
0.0
 10
1231.0
 20
-582.0
 10
997.0
 20
-582.0
 10
997.0
 20
-359.0
 10
1231.0
 20
-359.0
  0
HATCH
  5
82
330
70
100
AcDbEntity
  8
huizen
 62
   252
420
 10061429
440
 33554687
100
AcDbHatch
 10
0.0
 20
0.0
 30
0.0
210
0.0
220
0.0
230
1.0
  2
SOLID
 70
     1
 71
     1
 91
        1
 92
        1
 93
        4
 72
     1
 10
1231.0
 20
-582.0
 11
997.0
 21
-582.0
 72
     1
 10
997.0
 20
-582.0
 11
997.0
 21
-359.0
 72
     1
 10
997.0
 20
-359.0
 11
1231.0
 21
-359.0
 72
     1
 10
1231.0
 20
-359.0
 11
1231.0
 21
-582.0
 97
        1
330
81
 75
     2
 76
     1
 98
        1
 10
0.0
 20
0.0
450
        0
451
        0
460
0.0
461
0.0
452
        0
462
0.0
453
        0
470

  0
LWPOLYLINE
  5
83
330
70
100
AcDbEntity
  8
huizen
100
AcDbPolyline
 90
        3
 70
     1
 43
0.0
 10
1114.506172839499
 20
-178.5
 10
997.1055377448937
 20
-359.0
 10
1231.906807934119
 20
-359.0
  0
HATCH
  5
84
330
70
100
AcDbEntity
  8
huizen
 62
   251
420
  7562071
440
 33554687
100
AcDbHatch
 10
0.0
 20
0.0
 30
0.0
210
0.0
220
0.0
230
1.0
  2
SOLID
 70
     1
 71
     1
 91
        1
 92
        1
 93
        3
 72
     1
 10
1114.506172839499
 20
-178.5
 11
997.1055377448937
 21
-359.0
 72
     1
 10
997.1055377448937
 20
-359.0
 11
1231.906807934119
 21
-359.0
 72
     1
 10
1231.906807934119
 20
-359.0
 11
1114.506172839499
 21
-178.5
 97
        1
330
83
 75
     2
 76
     1
 98
        1
 10
0.0
 20
0.0
450
        0
451
        0
460
0.0
461
0.0
452
        0
462
0.0
453
        0
470

  0
LWPOLYLINE
  5
85
330
70
100
AcDbEntity
  8
huizen
100
AcDbPolyline
 90
        4
 70
     1
 43
0.0
 10
629.5061728395048
 20
-582.0
 10
395.5061728395058
 20
-582.0
 10
395.5061728395058
 20
-359.0
 10
629.5061728395048
 20
-359.0
  0
HATCH
  5
86
330
70
100
AcDbEntity
  8
huizen
 62
   252
420
 10061429
440
 33554687
100
AcDbHatch
 10
0.0
 20
0.0
 30
0.0
210
0.0
220
0.0
230
1.0
  2
SOLID
 70
     1
 71
     1
 91
        1
 92
        1
 93
        4
 72
     1
 10
629.5061728395048
 20
-582.0
 11
395.5061728395058
 21
-582.0
 72
     1
 10
395.5061728395058
 20
-582.0
 11
395.5061728395058
 21
-359.0
 72
     1
 10
395.5061728395058
 20
-359.0
 11
629.5061728395048
 21
-359.0
 72
     1
 10
629.5061728395048
 20
-359.0
 11
629.5061728395048
 21
-582.0
 97
        1
330
85
 75
     2
 76
     1
 98
        1
 10
0.0
 20
0.0
450
        0
451
        0
460
0.0
461
0.0
452
        0
462
0.0
453
        0
470

  0
LWPOLYLINE
  5
87
330
70
100
AcDbEntity
  8
huizen
100
AcDbPolyline
 90
        3
 70
     1
 43
0.0
 10
512.5061728395057
 20
-178.0
 10
395.1055377448947
 20
-358.5
 10
629.9068079341159
 20
-358.5
  0
HATCH
  5
88
330
70
100
AcDbEntity
  8
huizen
 62
   251
420
  7562071
440
 33554687
100
AcDbHatch
 10
0.0
 20
0.0
 30
0.0
210
0.0
220
0.0
230
1.0
  2
SOLID
 70
     1
 71
     1
 91
        1
 92
        1
 93
        3
 72
     1
 10
512.5061728395057
 20
-178.0
 11
395.1055377448947
 21
-358.5
 72
     1
 10
395.1055377448947
 20
-358.5
 11
629.9068079341159
 21
-358.5
 72
     1
 10
629.9068079341159
 20
-358.5
 11
512.5061728395057
 21
-178.0
 97
        1
330
87
 75
     2
 76
     1
 98
        1
 10
0.0
 20
0.0
450
        0
451
        0
460
0.0
461
0.0
452
        0
462
0.0
453
        0
470

  0
SPLINE
  5
8A
330
70
100
AcDbEntity
  8
vlammen
 62
     1
420
 16711680
370
   106
100
AcDbSpline
210
0.0
220
0.0
230
1.0
 70
     8
 71
     3
 72
    71
 73
    67
 74
     0
 42
0.0000000001
 43
0.0000000001
 40
0.0
 40
0.0
 40
0.0
 40
0.0
 40
1.0
 40
1.0
 40
1.0
 40
2.0
 40
2.0
 40
2.0
 40
3.0
 40
3.0
 40
3.0
 40
4.0
 40
4.0
 40
4.0
 40
5.0
 40
5.0
 40
5.0
 40
6.0
 40
6.0
 40
6.0
 40
7.0
 40
7.0
 40
7.0
 40
8.0
 40
8.0
 40
8.0
 40
9.0
 40
9.0
 40
9.0
 40
10.0
 40
10.0
 40
10.0
 40
11.0
 40
11.0
 40
11.0
 40
12.0
 40
12.0
 40
12.0
 40
13.0
 40
13.0
 40
13.0
 40
14.0
 40
14.0
 40
14.0
 40
15.0
 40
15.0
 40
15.0
 40
16.0
 40
16.0
 40
16.0
 40
17.0
 40
17.0
 40
17.0
 40
18.0
 40
18.0
 40
18.0
 40
19.0
 40
19.0
 40
19.0
 40
20.0
 40
20.0
 40
20.0
 40
21.0
 40
21.0
 40
21.0
 40
22.0
 40
22.0
 40
22.0
 40
22.0
 10
1030.610746183199
 20
-342.108550664947
 30
0.0
 10
1047.257038690999
 20
-342.1200955777349
 30
0.0
 10
1062.34473704992
 20
-326.7668662287797
 30
0.0
 10
1062.04281048095
 20
-310.1233080789461
 30
0.0
 10
1062.02243706145
 20
-309.0002288764008
 30
0.0
 10
1061.9202891494
 20
-307.8142345117103
 30
0.0
 10
1061.274233946189
 20
-306.8953576728745
 30
0.0
 10
1060.60536138612
 20
-305.9440281533534
 30
0.0
 10
1059.471035988279
 20
-305.4443137000671
 30
0.0
 10
1058.627665061011
 20
-304.643599203142
 30
0.0
 10
1055.497123991759
 20
-301.6713972005273
 30
0.0
 10
1057.51310166979
 20
-296.5020482002874
 30
0.0
 10
1059.471013459741
 20
-292.6548605721946
 30
0.0
 10
1063.574622506259
 20
-284.5915041980043
 30
0.0
 10
1066.656526266979
 20
-276.0088617835127
 30
0.0
 10
1068.619773357601
 20
-267.1769321824768
 30
0.0
 10
1068.972830459699
 20
-265.5886566023091
 30
0.0
 10
1069.13023844356
 20
-263.5754752889061
 30
0.0
 10
1067.76861635794
 20
-262.6848272767911
 30
0.0
 10
1067.258324921249
 20
-262.3510415221026
 30
0.0
 10
1066.62690151445
 20
-262.2606406935684
 30
0.0
 10
1066.01728294729
 20
-262.2473936161286
 30
0.0
 10
1062.74317281687
 20
-262.1762468535844
 30
0.0
 10
1059.78515619833
 20
-264.0436022622034
 30
0.0
 10
1056.6610172982
 20
-265.0257504831243
 30
0.0
 10
1053.53687839807
 20
-266.007898704046
 30
0.0
 10
1049.37430600281
 20
-265.6679165625574
 30
0.0
 10
1047.98383963747
 20
-262.7028765489922
 30
0.0
 10
1047.148014044389
 20
-260.9205562835505
 30
0.0
 10
1047.63644133044
 20
-258.8332895555341
 30
0.0
 10
1048.071738146271
 20
-256.9134493589863
 30
0.0
 10
1050.43414490565
 20
-246.4942529562549
 30
0.0
 10
1049.885128485581
 20
-233.6857505689386
 30
0.0
 10
1041.13176322202
 20
-227.5604574641911
 30
0.0
 10
1040.301423421781
 20
-233.1103059002271
 30
0.0
 10
1040.09553466718
 20
-238.7533435499554
 30
0.0
 10
1040.51922759455
 20
-244.3489459057728
 30
0.0
 10
1040.6702788702
 20
-246.3438407197682
 30
0.0
 10
1040.85441204955
 20
-248.5262919192319
 30
0.0
 10
1039.714720091549
 20
-250.1705315744039
 30
0.0
 10
1036.93928795763
 20
-254.1746622809597
 30
0.0
 10
1030.731373615899
 20
-250.8535199454182
 30
0.0
 10
1025.87585221673
 20
-251.2535176452211
 30
0.0
 10
1021.743820711523
 20
-251.5939141542895
 30
0.0
 10
1018.368365950304
 20
-255.0603277848804
 30
0.0
 10
1017.025571974616
 20
-258.9828854327516
 30
0.0
 10
1015.682777998929
 20
-262.9054430806236
 30
0.0
 10
1016.01786531968
 20
-267.1977048720064
 30
0.0
 10
1016.713334372611
 20
-271.2849872158658
 30
0.0
 10
1017.343079719299
 20
-274.9860104617164
 30
0.0
 10
1018.256681966391
 20
-278.7603395998431
 30
0.0
 10
1017.554776588811
 20
-282.4483582349166
 30
0.0
 10
1016.852871211231
 20
-286.1363768699884
 30
0.0
 10
1013.945698064282
 20
-289.7472305172669
 30
0.0
 10
1010.191611446574
 20
-289.7786355881144
 30
0.0
 10
1008.312074008228
 20
-289.7943587045156
 30
0.0
 10
1006.384110240607
 20
-288.9348851948289
 30
0.0
 10
1004.607057260182
 20
-289.547244540765
 30
0.0
 10
1002.515912192462
 20
-290.2678377491156
 30
0.0
 10
1001.589035046516
 20
-292.6750326455476
 30
0.0
 10
1001.11178402444
 20
-294.8347486904641
 30
0.0
 10
998.8389712188109
 20
-305.1200028106341
 30
0.0
 10
1001.017674873958
 20
-316.3103949987744
 30
0.0
 10
1006.983166615982
 20
-324.9916984315614
 30
0.0
 10
1012.948658358007
 20
-333.6730018643466
 30
0.0
 10
1022.614063336416
 20
-339.7187916014027
 30
0.0
 10
1033.03043280901
 20
-341.2844761247797
 30
0.0
  0
HATCH
  5
8B
330
70
100
AcDbEntity
  8
vlammen
 62
    20
420
 15817252
440
 33554687
100
AcDbHatch
 10
0.0
 20
0.0
 30
0.0
210
0.0
220
0.0
230
1.0
  2
SOLID
 70
     1
 71
     1
 91
        1
 92
        1
 93
        2
 72
     4
 94
        3
 73
     0
 74
     0
 95
       71
 96
       67
 40
0.0
 40
0.0
 40
0.0
 40
0.0
 40
1.0
 40
1.0
 40
1.0
 40
2.0
 40
2.0
 40
2.0
 40
3.0
 40
3.0
 40
3.0
 40
4.0
 40
4.0
 40
4.0
 40
5.0
 40
5.0
 40
5.0
 40
6.0
 40
6.0
 40
6.0
 40
7.0
 40
7.0
 40
7.0
 40
8.0
 40
8.0
 40
8.0
 40
9.0
 40
9.0
 40
9.0
 40
10.0
 40
10.0
 40
10.0
 40
11.0
 40
11.0
 40
11.0
 40
12.0
 40
12.0
 40
12.0
 40
13.0
 40
13.0
 40
13.0
 40
14.0
 40
14.0
 40
14.0
 40
15.0
 40
15.0
 40
15.0
 40
16.0
 40
16.0
 40
16.0
 40
17.0
 40
17.0
 40
17.0
 40
18.0
 40
18.0
 40
18.0
 40
19.0
 40
19.0
 40
19.0
 40
20.0
 40
20.0
 40
20.0
 40
21.0
 40
21.0
 40
21.0
 40
22.0
 40
22.0
 40
22.0
 40
22.0
 10
1030.610746183199
 20
-342.108550664947
 10
1047.257038690999
 20
-342.1200955777349
 10
1062.34473704992
 20
-326.7668662287797
 10
1062.04281048095
 20
-310.1233080789461
 10
1062.02243706145
 20
-309.0002288764008
 10
1061.9202891494
 20
-307.8142345117103
 10
1061.274233946189
 20
-306.8953576728745
 10
1060.60536138612
 20
-305.9440281533534
 10
1059.471035988279
 20
-305.4443137000671
 10
1058.627665061011
 20
-304.643599203142
 10
1055.497123991759
 20
-301.6713972005273
 10
1057.51310166979
 20
-296.5020482002874
 10
1059.471013459741
 20
-292.6548605721946
 10
1063.574622506259
 20
-284.5915041980043
 10
1066.656526266979
 20
-276.0088617835127
 10
1068.619773357601
 20
-267.1769321824768
 10
1068.972830459699
 20
-265.5886566023091
 10
1069.13023844356
 20
-263.5754752889061
 10
1067.76861635794
 20
-262.6848272767911
 10
1067.258324921249
 20
-262.3510415221026
 10
1066.62690151445
 20
-262.2606406935684
 10
1066.01728294729
 20
-262.2473936161286
 10
1062.74317281687
 20
-262.1762468535844
 10
1059.78515619833
 20
-264.0436022622034
 10
1056.6610172982
 20
-265.0257504831243
 10
1053.53687839807
 20
-266.007898704046
 10
1049.37430600281
 20
-265.6679165625574
 10
1047.98383963747
 20
-262.7028765489922
 10
1047.148014044389
 20
-260.9205562835505
 10
1047.63644133044
 20
-258.8332895555341
 10
1048.071738146271
 20
-256.9134493589863
 10
1050.43414490565
 20
-246.4942529562549
 10
1049.885128485581
 20
-233.6857505689386
 10
1041.13176322202
 20
-227.5604574641911
 10
1040.301423421781
 20
-233.1103059002271
 10
1040.09553466718
 20
-238.7533435499554
 10
1040.51922759455
 20
-244.3489459057728
 10
1040.6702788702
 20
-246.3438407197682
 10
1040.85441204955
 20
-248.5262919192319
 10
1039.714720091549
 20
-250.1705315744039
 10
1036.93928795763
 20
-254.1746622809597
 10
1030.731373615899
 20
-250.8535199454182
 10
1025.87585221673
 20
-251.2535176452211
 10
1021.743820711523
 20
-251.5939141542895
 10
1018.368365950304
 20
-255.0603277848804
 10
1017.025571974616
 20
-258.9828854327516
 10
1015.682777998929
 20
-262.9054430806236
 10
1016.01786531968
 20
-267.1977048720064
 10
1016.713334372611
 20
-271.2849872158658
 10
1017.343079719299
 20
-274.9860104617164
 10
1018.256681966391
 20
-278.7603395998431
 10
1017.554776588811
 20
-282.4483582349166
 10
1016.852871211231
 20
-286.1363768699884
 10
1013.945698064282
 20
-289.7472305172669
 10
1010.191611446574
 20
-289.7786355881144
 10
1008.312074008228
 20
-289.7943587045156
 10
1006.384110240607
 20
-288.9348851948289
 10
1004.607057260182
 20
-289.547244540765
 10
1002.515912192462
 20
-290.2678377491156
 10
1001.589035046516
 20
-292.6750326455476
 10
1001.11178402444
 20
-294.8347486904641
 10
998.8389712188109
 20
-305.1200028106341
 10
1001.017674873958
 20
-316.3103949987744
 10
1006.983166615982
 20
-324.9916984315614
 10
1012.948658358007
 20
-333.6730018643466
 10
1022.614063336416
 20
-339.7187916014027
 10
1033.03043280901
 20
-341.2844761247797
 97
        0
 72
     1
 10
1033.03043280901
 20
-341.2844761247797
 11
1030.610746183199
 21
-342.108550664947
 97
        0
 75
     2
 76
     1
 98
        1
 10
0.0
 20
0.0
450
        0
451
        0
460
0.0
461
0.0
452
        0
462
0.0
453
        0
470

  0
SPLINE
  5
8C
330
70
100
AcDbEntity
  8
vlammen
 62
     1
420
 16711680
370
   106
100
AcDbSpline
210
0.0
220
0.0
230
1.0
 70
     8
 71
     3
 72
    71
 73
    67
 74
     0
 42
0.0000000001
 43
0.0000000001
 40
0.0
 40
0.0
 40
0.0
 40
0.0
 40
1.0
 40
1.0
 40
1.0
 40
2.0
 40
2.0
 40
2.0
 40
3.0
 40
3.0
 40
3.0
 40
4.0
 40
4.0
 40
4.0
 40
5.0
 40
5.0
 40
5.0
 40
6.0
 40
6.0
 40
6.0
 40
7.0
 40
7.0
 40
7.0
 40
8.0
 40
8.0
 40
8.0
 40
9.0
 40
9.0
 40
9.0
 40
10.0
 40
10.0
 40
10.0
 40
11.0
 40
11.0
 40
11.0
 40
12.0
 40
12.0
 40
12.0
 40
13.0
 40
13.0
 40
13.0
 40
14.0
 40
14.0
 40
14.0
 40
15.0
 40
15.0
 40
15.0
 40
16.0
 40
16.0
 40
16.0
 40
17.0
 40
17.0
 40
17.0
 40
18.0
 40
18.0
 40
18.0
 40
19.0
 40
19.0
 40
19.0
 40
20.0
 40
20.0
 40
20.0
 40
21.0
 40
21.0
 40
21.0
 40
22.0
 40
22.0
 40
22.0
 40
22.0
 10
1207.6107461832
 20
-404.1085506649469
 30
0.0
 10
1224.257038690999
 20
-404.1200955777348
 30
0.0
 10
1239.344737049911
 20
-388.7668662287797
 30
0.0
 10
1239.04281048095
 20
-372.1233080789462
 30
0.0
 10
1239.02243706145
 20
-371.0002288764008
 30
0.0
 10
1238.9202891494
 20
-369.8142345117103
 30
0.0
 10
1238.274233946189
 20
-368.8953576728745
 30
0.0
 10
1237.60536138612
 20
-367.9440281533534
 30
0.0
 10
1236.471035988279
 20
-367.4443137000671
 30
0.0
 10
1235.62766506101
 20
-366.643599203142
 30
0.0
 10
1232.497123991759
 20
-363.6713972005273
 30
0.0
 10
1234.51310166979
 20
-358.5020482002874
 30
0.0
 10
1236.47101345974
 20
-354.6548605721946
 30
0.0
 10
1240.574622506259
 20
-346.5915041980043
 30
0.0
 10
1243.656526266979
 20
-338.0088617835127
 30
0.0
 10
1245.619773357601
 20
-329.1769321824768
 30
0.0
 10
1245.972830459699
 20
-327.5886566023091
 30
0.0
 10
1246.13023844356
 20
-325.5754752889061
 30
0.0
 10
1244.76861635794
 20
-324.6848272767911
 30
0.0
 10
1244.258324921249
 20
-324.3510415221026
 30
0.0
 10
1243.62690151445
 20
-324.2606406935684
 30
0.0
 10
1243.01728294729
 20
-324.2473936161287
 30
0.0
 10
1239.74317281687
 20
-324.1762468535844
 30
0.0
 10
1236.78515619833
 20
-326.0436022622034
 30
0.0
 10
1233.6610172982
 20
-327.0257504831243
 30
0.0
 10
1230.536878398059
 20
-328.007898704046
 30
0.0
 10
1226.37430600281
 20
-327.6679165625574
 30
0.0
 10
1224.983839637471
 20
-324.7028765489922
 30
0.0
 10
1224.148014044389
 20
-322.9205562835505
 30
0.0
 10
1224.63644133044
 20
-320.833289555534
 30
0.0
 10
1225.071738146271
 20
-318.9134493589863
 30
0.0
 10
1227.43414490565
 20
-308.494252956255
 30
0.0
 10
1226.885128485581
 20
-295.6857505689386
 30
0.0
 10
1218.13176322202
 20
-289.5604574641911
 30
0.0
 10
1217.301423421781
 20
-295.1103059002271
 30
0.0
 10
1217.09553466718
 20
-300.7533435499554
 30
0.0
 10
1217.51922759455
 20
-306.3489459057728
 30
0.0
 10
1217.6702788702
 20
-308.3438407197682
 30
0.0
 10
1217.85441204955
 20
-310.5262919192319
 30
0.0
 10
1216.71472009155
 20
-312.1705315744039
 30
0.0
 10
1213.93928795763
 20
-316.1746622809596
 30
0.0
 10
1207.731373615899
 20
-312.8535199454181
 30
0.0
 10
1202.87585221673
 20
-313.2535176452211
 30
0.0
 10
1198.743820711519
 20
-313.5939141542895
 30
0.0
 10
1195.3683659503
 20
-317.0603277848804
 30
0.0
 10
1194.02557197462
 20
-320.9828854327516
 30
0.0
 10
1192.682777998931
 20
-324.9054430806236
 30
0.0
 10
1193.01786531968
 20
-329.1977048720064
 30
0.0
 10
1193.713334372609
 20
-333.2849872158659
 30
0.0
 10
1194.343079719299
 20
-336.9860104617164
 30
0.0
 10
1195.25668196639
 20
-340.7603395998431
 30
0.0
 10
1194.554776588809
 20
-344.4483582349167
 30
0.0
 10
1193.852871211229
 20
-348.1363768699885
 30
0.0
 10
1190.945698064279
 20
-351.7472305172669
 30
0.0
 10
1187.191611446569
 20
-351.7786355881144
 30
0.0
 10
1185.31207400823
 20
-351.7943587045156
 30
0.0
 10
1183.384110240609
 20
-350.9348851948289
 30
0.0
 10
1181.60705726018
 20
-351.5472445407649
 30
0.0
 10
1179.51591219246
 20
-352.2678377491156
 30
0.0
 10
1178.58903504651
 20
-354.6750326455476
 30
0.0
 10
1178.11178402444
 20
-356.834748690464
 30
0.0
 10
1175.838971218811
 20
-367.1200028106341
 30
0.0
 10
1178.017674873959
 20
-378.3103949987744
 30
0.0
 10
1183.983166615981
 20
-386.9916984315614
 30
0.0
 10
1189.948658358011
 20
-395.6730018643466
 30
0.0
 10
1199.61406333641
 20
-401.7187916014027
 30
0.0
 10
1210.030432809009
 20
-403.2844761247798
 30
0.0
  0
HATCH
  5
8D
330
70
100
AcDbEntity
  8
vlammen
 62
    20
420
 15817252
440
 33554687
100
AcDbHatch
 10
0.0
 20
0.0
 30
0.0
210
0.0
220
0.0
230
1.0
  2
SOLID
 70
     1
 71
     1
 91
        1
 92
        1
 93
        2
 72
     4
 94
        3
 73
     0
 74
     0
 95
       71
 96
       67
 40
0.0
 40
0.0
 40
0.0
 40
0.0
 40
1.0
 40
1.0
 40
1.0
 40
2.0
 40
2.0
 40
2.0
 40
3.0
 40
3.0
 40
3.0
 40
4.0
 40
4.0
 40
4.0
 40
5.0
 40
5.0
 40
5.0
 40
6.0
 40
6.0
 40
6.0
 40
7.0
 40
7.0
 40
7.0
 40
8.0
 40
8.0
 40
8.0
 40
9.0
 40
9.0
 40
9.0
 40
10.0
 40
10.0
 40
10.0
 40
11.0
 40
11.0
 40
11.0
 40
12.0
 40
12.0
 40
12.0
 40
13.0
 40
13.0
 40
13.0
 40
14.0
 40
14.0
 40
14.0
 40
15.0
 40
15.0
 40
15.0
 40
16.0
 40
16.0
 40
16.0
 40
17.0
 40
17.0
 40
17.0
 40
18.0
 40
18.0
 40
18.0
 40
19.0
 40
19.0
 40
19.0
 40
20.0
 40
20.0
 40
20.0
 40
21.0
 40
21.0
 40
21.0
 40
22.0
 40
22.0
 40
22.0
 40
22.0
 10
1207.6107461832
 20
-404.1085506649469
 10
1224.257038690999
 20
-404.1200955777348
 10
1239.344737049911
 20
-388.7668662287797
 10
1239.04281048095
 20
-372.1233080789462
 10
1239.02243706145
 20
-371.0002288764008
 10
1238.9202891494
 20
-369.8142345117103
 10
1238.274233946189
 20
-368.8953576728745
 10
1237.60536138612
 20
-367.9440281533534
 10
1236.471035988279
 20
-367.4443137000671
 10
1235.62766506101
 20
-366.643599203142
 10
1232.497123991759
 20
-363.6713972005273
 10
1234.51310166979
 20
-358.5020482002874
 10
1236.47101345974
 20
-354.6548605721946
 10
1240.574622506259
 20
-346.5915041980043
 10
1243.656526266979
 20
-338.0088617835127
 10
1245.619773357601
 20
-329.1769321824768
 10
1245.972830459699
 20
-327.5886566023091
 10
1246.13023844356
 20
-325.5754752889061
 10
1244.76861635794
 20
-324.6848272767911
 10
1244.258324921249
 20
-324.3510415221026
 10
1243.62690151445
 20
-324.2606406935684
 10
1243.01728294729
 20
-324.2473936161287
 10
1239.74317281687
 20
-324.1762468535844
 10
1236.78515619833
 20
-326.0436022622034
 10
1233.6610172982
 20
-327.0257504831243
 10
1230.536878398059
 20
-328.007898704046
 10
1226.37430600281
 20
-327.6679165625574
 10
1224.983839637471
 20
-324.7028765489922
 10
1224.148014044389
 20
-322.9205562835505
 10
1224.63644133044
 20
-320.833289555534
 10
1225.071738146271
 20
-318.9134493589863
 10
1227.43414490565
 20
-308.494252956255
 10
1226.885128485581
 20
-295.6857505689386
 10
1218.13176322202
 20
-289.5604574641911
 10
1217.301423421781
 20
-295.1103059002271
 10
1217.09553466718
 20
-300.7533435499554
 10
1217.51922759455
 20
-306.3489459057728
 10
1217.6702788702
 20
-308.3438407197682
 10
1217.85441204955
 20
-310.5262919192319
 10
1216.71472009155
 20
-312.1705315744039
 10
1213.93928795763
 20
-316.1746622809596
 10
1207.731373615899
 20
-312.8535199454181
 10
1202.87585221673
 20
-313.2535176452211
 10
1198.743820711519
 20
-313.5939141542895
 10
1195.3683659503
 20
-317.0603277848804
 10
1194.02557197462
 20
-320.9828854327516
 10
1192.682777998931
 20
-324.9054430806236
 10
1193.01786531968
 20
-329.1977048720064
 10
1193.713334372609
 20
-333.2849872158659
 10
1194.343079719299
 20
-336.9860104617164
 10
1195.25668196639
 20
-340.7603395998431
 10
1194.554776588809
 20
-344.4483582349167
 10
1193.852871211229
 20
-348.1363768699885
 10
1190.945698064279
 20
-351.7472305172669
 10
1187.191611446569
 20
-351.7786355881144
 10
1185.31207400823
 20
-351.7943587045156
 10
1183.384110240609
 20
-350.9348851948289
 10
1181.60705726018
 20
-351.5472445407649
 10
1179.51591219246
 20
-352.2678377491156
 10
1178.58903504651
 20
-354.6750326455476
 10
1178.11178402444
 20
-356.834748690464
 10
1175.838971218811
 20
-367.1200028106341
 10
1178.017674873959
 20
-378.3103949987744
 10
1183.983166615981
 20
-386.9916984315614
 10
1189.948658358011
 20
-395.6730018643466
 10
1199.61406333641
 20
-401.7187916014027
 10
1210.030432809009
 20
-403.2844761247798
 97
        0
 72
     1
 10
1210.030432809009
 20
-403.2844761247798
 11
1207.6107461832
 21
-404.1085506649469
 97
        0
 75
     2
 76
     1
 98
        1
 10
0.0
 20
0.0
450
        0
451
        0
460
0.0
461
0.0
452
        0
462
0.0
453
        0
470

  0
SPLINE
  5
8E
330
70
100
AcDbEntity
  8
vlammen
 62
     1
420
 16711680
370
   106
100
AcDbSpline
210
0.0
220
0.0
230
1.0
 70
     8
 71
     3
 72
    71
 73
    67
 74
     0
 42
0.0000000001
 43
0.0000000001
 40
0.0
 40
0.0
 40
0.0
 40
0.0
 40
1.0
 40
1.0
 40
1.0
 40
2.0
 40
2.0
 40
2.0
 40
3.0
 40
3.0
 40
3.0
 40
4.0
 40
4.0
 40
4.0
 40
5.0
 40
5.0
 40
5.0
 40
6.0
 40
6.0
 40
6.0
 40
7.0
 40
7.0
 40
7.0
 40
8.0
 40
8.0
 40
8.0
 40
9.0
 40
9.0
 40
9.0
 40
10.0
 40
10.0
 40
10.0
 40
11.0
 40
11.0
 40
11.0
 40
12.0
 40
12.0
 40
12.0
 40
13.0
 40
13.0
 40
13.0
 40
14.0
 40
14.0
 40
14.0
 40
15.0
 40
15.0
 40
15.0
 40
16.0
 40
16.0
 40
16.0
 40
17.0
 40
17.0
 40
17.0
 40
18.0
 40
18.0
 40
18.0
 40
19.0
 40
19.0
 40
19.0
 40
20.0
 40
20.0
 40
20.0
 40
21.0
 40
21.0
 40
21.0
 40
22.0
 40
22.0
 40
22.0
 40
22.0
 10
280.0423650671664
 20
-318.9665194243226
 30
0.0
 10
296.6886575749586
 20
-318.9780643371132
 30
0.0
 10
311.7763559338764
 20
-303.624834988158
 30
0.0
 10
311.474429364911
 20
-286.9812768383226
 30
0.0
 10
311.4540559454126
 20
-285.8581976357773
 30
0.0
 10
311.3519080333563
 20
-284.6722032710877
 30
0.0
 10
310.7058528301559
 20
-283.7533264322519
 30
0.0
 10
310.0369802700779
 20
-282.8019969127308
 30
0.0
 10
308.9026548722431
 20
-282.3022824594445
 30
0.0
 10
308.0592839449746
 20
-281.5015679625194
 30
0.0
 10
304.928742875718
 20
-278.5293659599056
 30
0.0
 10
306.944720553749
 20
-273.3600169596648
 30
0.0
 10
308.9026323437001
 20
-269.512829331572
 30
0.0
 10
313.0062413902224
 20
-261.4494729573817
 30
0.0
 10
316.0881451509395
 20
-252.86683054289
 30
0.0
 10
318.0513922415603
 20
-244.0349009418542
 30
0.0
 10
318.4044493436668
 20
-242.4466253616874
 30
0.0
 10
318.5618573275196
 20
-240.4334440482844
 30
0.0
 10
317.2002352419013
 20
-239.5427960361694
 30
0.0
 10
316.6899438052096
 20
-239.20901028148
 30
0.0
 10
316.0585203984128
 20
-239.1186094529457
 30
0.0
 10
315.4489018312479
 20
-239.105362375506
 30
0.0
 10
312.1747917008343
 20
-239.0342156129609
 30
0.0
 10
309.2167750822928
 20
-240.9015710215799
 30
0.0
 10
306.0926361821594
 20
-241.8837192425017
 30
0.0
 10
302.9684972820269
 20
-242.8658674634225
 30
0.0
 10
298.8059248867685
 20
-242.5258853219347
 30
0.0
 10
297.4154585214273
 20
-239.5608453083696
 30
0.0
 10
296.5796329283521
 20
-237.7785250429279
 30
0.0
 10
297.0680602143984
 20
-235.6912583149115
 30
0.0
 10
297.5033570302303
 20
-233.7714181183637
 30
0.0
 10
299.8657637896122
 20
-223.3522217156324
 30
0.0
 10
299.3167473695448
 20
-210.543719328316
 30
0.0
 10
290.5633821059773
 20
-204.4184262235694
 30
0.0
 10
289.7330423057401
 20
-209.9682746596054
 30
0.0
 10
289.5271535511447
 20
-215.6113123093328
 30
0.0
 10
289.9508464785104
 20
-221.2069146651502
 30
0.0
 10
290.1018977541562
 20
-223.2018094791456
 30
0.0
 10
290.2860309335147
 20
-225.3842606786093
 30
0.0
 10
289.1463389755136
 20
-227.0285003337813
 30
0.0
 10
286.3709068415901
 20
-231.032631040337
 30
0.0
 10
280.1629924998606
 20
-227.7114887047956
 30
0.0
 10
275.3074711006884
 20
-228.1114864045994
 30
0.0
 10
271.1754395954831
 20
-228.451882913666
 30
0.0
 10
267.7999848342651
 20
-231.9182965442578
 30
0.0
 10
266.4571908585776
 20
-235.840854192129
 30
0.0
 10
265.114396882891
 20
-239.763411840001
 30
0.0
 10
265.4494842036411
 20
-244.0556736313829
 30
0.0
 10
266.1449532565721
 20
-248.1429559752432
 30
0.0
 10
266.7746986032598
 20
-251.8439792210938
 30
0.0
 10
267.6883008503519
 20
-255.6183083592205
 30
0.0
 10
266.9863954727734
 20
-259.3063269942941
 30
0.0
 10
266.2844900951923
 20
-262.9943456293668
 30
0.0
 10
263.3773169482438
 20
-266.6051992766433
 30
0.0
 10
259.6232303305369
 20
-266.6366043474909
 30
0.0
 10
257.7436928921898
 20
-266.652327463893
 30
0.0
 10
255.8157291245688
 20
-265.7928539542063
 30
0.0
 10
254.0386761441423
 20
-266.4052133001433
 30
0.0
 10
251.9475310764246
 20
-267.1258065084931
 30
0.0
 10
251.0206539304763
 20
-269.5330014049259
 30
0.0
 10
250.5434029084018
 20
-271.6927174498414
 30
0.0
 10
248.270590102773
 20
-281.9779715700124
 30
0.0
 10
250.4492937579198
 20
-293.1683637581509
 30
0.0
 10
256.4147854999437
 20
-301.8496671909379
 30
0.0
 10
262.3802772419694
 20
-310.5309706237249
 30
0.0
 10
272.045682220376
 20
-316.5767603607801
 30
0.0
 10
282.4620516929672
 20
-318.1424448841572
 30
0.0
  0
HATCH
  5
8F
330
70
100
AcDbEntity
  8
vlammen
 62
    20
420
 15817252
440
 33554687
100
AcDbHatch
 10
0.0
 20
0.0
 30
0.0
210
0.0
220
0.0
230
1.0
  2
SOLID
 70
     1
 71
     1
 91
        1
 92
        1
 93
        2
 72
     4
 94
        3
 73
     0
 74
     0
 95
       71
 96
       67
 40
0.0
 40
0.0
 40
0.0
 40
0.0
 40
1.0
 40
1.0
 40
1.0
 40
2.0
 40
2.0
 40
2.0
 40
3.0
 40
3.0
 40
3.0
 40
4.0
 40
4.0
 40
4.0
 40
5.0
 40
5.0
 40
5.0
 40
6.0
 40
6.0
 40
6.0
 40
7.0
 40
7.0
 40
7.0
 40
8.0
 40
8.0
 40
8.0
 40
9.0
 40
9.0
 40
9.0
 40
10.0
 40
10.0
 40
10.0
 40
11.0
 40
11.0
 40
11.0
 40
12.0
 40
12.0
 40
12.0
 40
13.0
 40
13.0
 40
13.0
 40
14.0
 40
14.0
 40
14.0
 40
15.0
 40
15.0
 40
15.0
 40
16.0
 40
16.0
 40
16.0
 40
17.0
 40
17.0
 40
17.0
 40
18.0
 40
18.0
 40
18.0
 40
19.0
 40
19.0
 40
19.0
 40
20.0
 40
20.0
 40
20.0
 40
21.0
 40
21.0
 40
21.0
 40
22.0
 40
22.0
 40
22.0
 40
22.0
 10
280.0423650671664
 20
-318.9665194243226
 10
296.6886575749586
 20
-318.9780643371132
 10
311.7763559338764
 20
-303.624834988158
 10
311.474429364911
 20
-286.9812768383226
 10
311.4540559454126
 20
-285.8581976357773
 10
311.3519080333563
 20
-284.6722032710877
 10
310.7058528301559
 20
-283.7533264322519
 10
310.0369802700779
 20
-282.8019969127308
 10
308.9026548722431
 20
-282.3022824594445
 10
308.0592839449746
 20
-281.5015679625194
 10
304.928742875718
 20
-278.5293659599056
 10
306.944720553749
 20
-273.3600169596648
 10
308.9026323437001
 20
-269.512829331572
 10
313.0062413902224
 20
-261.4494729573817
 10
316.0881451509395
 20
-252.86683054289
 10
318.0513922415603
 20
-244.0349009418542
 10
318.4044493436668
 20
-242.4466253616874
 10
318.5618573275196
 20
-240.4334440482844
 10
317.2002352419013
 20
-239.5427960361694
 10
316.6899438052096
 20
-239.20901028148
 10
316.0585203984128
 20
-239.1186094529457
 10
315.4489018312479
 20
-239.105362375506
 10
312.1747917008343
 20
-239.0342156129609
 10
309.2167750822928
 20
-240.9015710215799
 10
306.0926361821594
 20
-241.8837192425017
 10
302.9684972820269
 20
-242.8658674634225
 10
298.8059248867685
 20
-242.5258853219347
 10
297.4154585214273
 20
-239.5608453083696
 10
296.5796329283521
 20
-237.7785250429279
 10
297.0680602143984
 20
-235.6912583149115
 10
297.5033570302303
 20
-233.7714181183637
 10
299.8657637896122
 20
-223.3522217156324
 10
299.3167473695448
 20
-210.543719328316
 10
290.5633821059773
 20
-204.4184262235694
 10
289.7330423057401
 20
-209.9682746596054
 10
289.5271535511447
 20
-215.6113123093328
 10
289.9508464785104
 20
-221.2069146651502
 10
290.1018977541562
 20
-223.2018094791456
 10
290.2860309335147
 20
-225.3842606786093
 10
289.1463389755136
 20
-227.0285003337813
 10
286.3709068415901
 20
-231.032631040337
 10
280.1629924998606
 20
-227.7114887047956
 10
275.3074711006884
 20
-228.1114864045994
 10
271.1754395954831
 20
-228.451882913666
 10
267.7999848342651
 20
-231.9182965442578
 10
266.4571908585776
 20
-235.840854192129
 10
265.114396882891
 20
-239.763411840001
 10
265.4494842036411
 20
-244.0556736313829
 10
266.1449532565721
 20
-248.1429559752432
 10
266.7746986032598
 20
-251.8439792210938
 10
267.6883008503519
 20
-255.6183083592205
 10
266.9863954727734
 20
-259.3063269942941
 10
266.2844900951923
 20
-262.9943456293668
 10
263.3773169482438
 20
-266.6051992766433
 10
259.6232303305369
 20
-266.6366043474909
 10
257.7436928921898
 20
-266.652327463893
 10
255.8157291245688
 20
-265.7928539542063
 10
254.0386761441423
 20
-266.4052133001433
 10
251.9475310764246
 20
-267.1258065084931
 10
251.0206539304763
 20
-269.5330014049259
 10
250.5434029084018
 20
-271.6927174498414
 10
248.270590102773
 20
-281.9779715700124
 10
250.4492937579198
 20
-293.1683637581509
 10
256.4147854999437
 20
-301.8496671909379
 10
262.3802772419694
 20
-310.5309706237249
 10
272.045682220376
 20
-316.5767603607801
 10
282.4620516929672
 20
-318.1424448841572
 97
        0
 72
     1
 10
282.4620516929672
 20
-318.1424448841572
 11
280.0423650671664
 21
-318.9665194243226
 97
        0
 75
     2
 76
     1
 98
        1
 10
0.0
 20
0.0
450
        0
451
        0
460
0.0
461
0.0
452
        0
462
0.0
453
        0
470

  0
SPLINE
  5
90
330
70
100
AcDbEntity
  8
vlammen
 62
     1
420
 16711680
370
   106
100
AcDbSpline
210
0.0
220
0.0
230
1.0
 70
     8
 71
     3
 72
    71
 73
    67
 74
     0
 42
0.0000000001
 43
0.0000000001
 40
0.0
 40
0.0
 40
0.0
 40
0.0
 40
1.0
 40
1.0
 40
1.0
 40
2.0
 40
2.0
 40
2.0
 40
3.0
 40
3.0
 40
3.0
 40
4.0
 40
4.0
 40
4.0
 40
5.0
 40
5.0
 40
5.0
 40
6.0
 40
6.0
 40
6.0
 40
7.0
 40
7.0
 40
7.0
 40
8.0
 40
8.0
 40
8.0
 40
9.0
 40
9.0
 40
9.0
 40
10.0
 40
10.0
 40
10.0
 40
11.0
 40
11.0
 40
11.0
 40
12.0
 40
12.0
 40
12.0
 40
13.0
 40
13.0
 40
13.0
 40
14.0
 40
14.0
 40
14.0
 40
15.0
 40
15.0
 40
15.0
 40
16.0
 40
16.0
 40
16.0
 40
17.0
 40
17.0
 40
17.0
 40
18.0
 40
18.0
 40
18.0
 40
19.0
 40
19.0
 40
19.0
 40
20.0
 40
20.0
 40
20.0
 40
21.0
 40
21.0
 40
21.0
 40
22.0
 40
22.0
 40
22.0
 40
22.0
 10
440.6107461832043
 20
-464.1085506649469
 30
0.0
 10
457.2570386909974
 20
-464.1200955777385
 30
0.0
 10
472.3447370499143
 20
-448.7668662287833
 30
0.0
 10
472.0428104809489
 20
-432.1233080789461
 30
0.0
 10
472.0224370614505
 20
-431.0002288764008
 30
0.0
 10
471.920289149395
 20
-429.8142345117121
 30
0.0
 10
471.2742339461946
 20
-428.8953576728763
 30
0.0
 10
470.605361386115
 20
-427.9440281533552
 30
0.0
 10
469.4710359882811
 20
-427.4443137000689
 30
0.0
 10
468.6276650610125
 20
-426.6435992031437
 30
0.0
 10
465.4971239917558
 20
-423.6713972005309
 30
0.0
 10
467.5131016697869
 20
-418.5020482002892
 30
0.0
 10
469.4710134597371
 20
-414.6548605721964
 30
0.0
 10
473.5746225062611
 20
-406.591504198006
 30
0.0
 10
476.6565262669773
 20
-398.0088617835145
 30
0.0
 10
478.6197733575972
 20
-389.1769321824786
 30
0.0
 10
478.9728304597047
 20
-387.5886566023119
 30
0.0
 10
479.1302384435584
 20
-385.5754752889088
 30
0.0
 10
477.7686163579383
 20
-384.6848272767939
 30
0.0
 10
477.2583249212475
 20
-384.3510415221044
 30
0.0
 10
476.6269015144498
 20
-384.2606406935701
 30
0.0
 10
476.0172829472867
 20
-384.2473936161305
 30
0.0
 10
472.7431728168721
 20
-384.1762468535853
 30
0.0
 10
469.7851561983298
 20
-386.0436022622043
 30
0.0
 10
466.6610172981964
 20
-387.0257504831261
 30
0.0
 10
463.5368783980648
 20
-388.007898704047
 30
0.0
 10
459.3743060028064
 20
-387.6679165625592
 30
0.0
 10
457.9838396374652
 20
-384.702876548994
 30
0.0
 10
457.1480140443891
 20
-382.9205562835523
 30
0.0
 10
457.6364413304363
 20
-380.8332895555359
 30
0.0
 10
458.0717381462672
 20
-378.9134493589882
 30
0.0
 10
460.4341449056501
 20
-368.4942529562568
 30
0.0
 10
459.8851284855827
 20
-355.6857505689404
 30
0.0
 10
451.1317632220161
 20
-349.5604574641939
 30
0.0
 10
450.3014234217771
 20
-355.1103059002298
 30
0.0
 10
450.0955346671835
 20
-360.7533435499572
 30
0.0
 10
450.5192275945482
 20
-366.3489459057746
 30
0.0
 10
450.670278870195
 20
-368.34384071977
 30
0.0
 10
450.8544120495534
 20
-370.5262919192337
 30
0.0
 10
449.7147200915515
 20
-372.1705315744057
 30
0.0
 10
446.939287957628
 20
-376.1746622809615
 30
0.0
 10
440.7313736158985
 20
-372.85351994542
 30
0.0
 10
435.8758522167263
 20
-373.2535176452238
 30
0.0
 10
431.743820711521
 20
-373.5939141542904
 30
0.0
 10
428.368365950303
 20
-377.0603277848822
 30
0.0
 10
427.0255719746155
 20
-380.9828854327534
 30
0.0
 10
425.6827779989289
 20
-384.9054430806254
 30
0.0
 10
426.0178653196789
 20
-389.1977048720073
 30
0.0
 10
426.71333437261
 20
-393.2849872158677
 30
0.0
 10
427.3430797192977
 20
-396.9860104617183
 30
0.0
 10
428.2566819663897
 20
-400.7603395998448
 30
0.0
 10
427.5547765888113
 20
-404.4483582349185
 30
0.0
 10
426.8528712112302
 20
-408.1363768699921
 30
0.0
 10
423.9456980642817
 20
-411.7472305172668
 30
0.0
 10
420.1916114465748
 20
-411.7786355881143
 30
0.0
 10
418.3120740082276
 20
-411.7943587045174
 30
0.0
 10
416.3841102406068
 20
-410.9348851948307
 30
0.0
 10
414.6070572601802
 20
-411.5472445407686
 30
0.0
 10
412.5159121924625
 20
-412.2678377491174
 30
0.0
 10
411.5890350465142
 20
-414.6750326455512
 30
0.0
 10
411.1117840244396
 20
-416.8347486904658
 30
0.0
 10
408.8389712188108
 20
-427.1200028106359
 30
0.0
 10
411.0176748739577
 20
-438.3103949987744
 30
0.0
 10
416.9831666159816
 20
-446.9916984315623
 30
0.0
 10
422.9486583580073
 20
-455.6730018643502
 30
0.0
 10
432.6140633364139
 20
-461.7187916014045
 30
0.0
 10
443.0304328090051
 20
-463.2844761247816
 30
0.0
  0
HATCH
  5
91
330
70
100
AcDbEntity
  8
vlammen
 62
    20
420
 15817252
440
 33554687
100
AcDbHatch
 10
0.0
 20
0.0
 30
0.0
210
0.0
220
0.0
230
1.0
  2
SOLID
 70
     1
 71
     1
 91
        1
 92
        1
 93
        2
 72
     4
 94
        3
 73
     0
 74
     0
 95
       71
 96
       67
 40
0.0
 40
0.0
 40
0.0
 40
0.0
 40
1.0
 40
1.0
 40
1.0
 40
2.0
 40
2.0
 40
2.0
 40
3.0
 40
3.0
 40
3.0
 40
4.0
 40
4.0
 40
4.0
 40
5.0
 40
5.0
 40
5.0
 40
6.0
 40
6.0
 40
6.0
 40
7.0
 40
7.0
 40
7.0
 40
8.0
 40
8.0
 40
8.0
 40
9.0
 40
9.0
 40
9.0
 40
10.0
 40
10.0
 40
10.0
 40
11.0
 40
11.0
 40
11.0
 40
12.0
 40
12.0
 40
12.0
 40
13.0
 40
13.0
 40
13.0
 40
14.0
 40
14.0
 40
14.0
 40
15.0
 40
15.0
 40
15.0
 40
16.0
 40
16.0
 40
16.0
 40
17.0
 40
17.0
 40
17.0
 40
18.0
 40
18.0
 40
18.0
 40
19.0
 40
19.0
 40
19.0
 40
20.0
 40
20.0
 40
20.0
 40
21.0
 40
21.0
 40
21.0
 40
22.0
 40
22.0
 40
22.0
 40
22.0
 10
440.6107461832043
 20
-464.1085506649469
 10
457.2570386909974
 20
-464.1200955777385
 10
472.3447370499143
 20
-448.7668662287833
 10
472.0428104809489
 20
-432.1233080789461
 10
472.0224370614505
 20
-431.0002288764008
 10
471.920289149395
 20
-429.8142345117121
 10
471.2742339461946
 20
-428.8953576728763
 10
470.605361386115
 20
-427.9440281533552
 10
469.4710359882811
 20
-427.4443137000689
 10
468.6276650610125
 20
-426.6435992031437
 10
465.4971239917558
 20
-423.6713972005309
 10
467.5131016697869
 20
-418.5020482002892
 10
469.4710134597371
 20
-414.6548605721964
 10
473.5746225062611
 20
-406.591504198006
 10
476.6565262669773
 20
-398.0088617835145
 10
478.6197733575972
 20
-389.1769321824786
 10
478.9728304597047
 20
-387.5886566023119
 10
479.1302384435584
 20
-385.5754752889088
 10
477.7686163579383
 20
-384.6848272767939
 10
477.2583249212475
 20
-384.3510415221044
 10
476.6269015144498
 20
-384.2606406935701
 10
476.0172829472867
 20
-384.2473936161305
 10
472.7431728168721
 20
-384.1762468535853
 10
469.7851561983298
 20
-386.0436022622043
 10
466.6610172981964
 20
-387.0257504831261
 10
463.5368783980648
 20
-388.007898704047
 10
459.3743060028064
 20
-387.6679165625592
 10
457.9838396374652
 20
-384.702876548994
 10
457.1480140443891
 20
-382.9205562835523
 10
457.6364413304363
 20
-380.8332895555359
 10
458.0717381462672
 20
-378.9134493589882
 10
460.4341449056501
 20
-368.4942529562568
 10
459.8851284855827
 20
-355.6857505689404
 10
451.1317632220161
 20
-349.5604574641939
 10
450.3014234217771
 20
-355.1103059002298
 10
450.0955346671835
 20
-360.7533435499572
 10
450.5192275945482
 20
-366.3489459057746
 10
450.670278870195
 20
-368.34384071977
 10
450.8544120495534
 20
-370.5262919192337
 10
449.7147200915515
 20
-372.1705315744057
 10
446.939287957628
 20
-376.1746622809615
 10
440.7313736158985
 20
-372.85351994542
 10
435.8758522167263
 20
-373.2535176452238
 10
431.743820711521
 20
-373.5939141542904
 10
428.368365950303
 20
-377.0603277848822
 10
427.0255719746155
 20
-380.9828854327534
 10
425.6827779989289
 20
-384.9054430806254
 10
426.0178653196789
 20
-389.1977048720073
 10
426.71333437261
 20
-393.2849872158677
 10
427.3430797192977
 20
-396.9860104617183
 10
428.2566819663897
 20
-400.7603395998448
 10
427.5547765888113
 20
-404.4483582349185
 10
426.8528712112302
 20
-408.1363768699921
 10
423.9456980642817
 20
-411.7472305172668
 10
420.1916114465748
 20
-411.7786355881143
 10
418.3120740082276
 20
-411.7943587045174
 10
416.3841102406068
 20
-410.9348851948307
 10
414.6070572601802
 20
-411.5472445407686
 10
412.5159121924625
 20
-412.2678377491174
 10
411.5890350465142
 20
-414.6750326455512
 10
411.1117840244396
 20
-416.8347486904658
 10
408.8389712188108
 20
-427.1200028106359
 10
411.0176748739577
 20
-438.3103949987744
 10
416.9831666159816
 20
-446.9916984315623
 10
422.9486583580073
 20
-455.6730018643502
 10
432.6140633364139
 20
-461.7187916014045
 10
443.0304328090051
 20
-463.2844761247816
 97
        0
 72
     1
 10
443.0304328090051
 20
-463.2844761247816
 11
440.6107461832043
 21
-464.1085506649469
 97
        0
 75
     2
 76
     1
 98
        1
 10
0.0
 20
0.0
450
        0
451
        0
460
0.0
461
0.0
452
        0
462
0.0
453
        0
470

  0
SPLINE
  5
92
330
70
100
AcDbEntity
  8
vlammen
 62
     1
420
 16711680
370
   106
100
AcDbSpline
210
0.0
220
0.0
230
1.0
 70
     8
 71
     3
 72
    71
 73
    67
 74
     0
 42
0.0000000001
 43
0.0000000001
 40
0.0
 40
0.0
 40
0.0
 40
0.0
 40
1.0
 40
1.0
 40
1.0
 40
2.0
 40
2.0
 40
2.0
 40
3.0
 40
3.0
 40
3.0
 40
4.0
 40
4.0
 40
4.0
 40
5.0
 40
5.0
 40
5.0
 40
6.0
 40
6.0
 40
6.0
 40
7.0
 40
7.0
 40
7.0
 40
8.0
 40
8.0
 40
8.0
 40
9.0
 40
9.0
 40
9.0
 40
10.0
 40
10.0
 40
10.0
 40
11.0
 40
11.0
 40
11.0
 40
12.0
 40
12.0
 40
12.0
 40
13.0
 40
13.0
 40
13.0
 40
14.0
 40
14.0
 40
14.0
 40
15.0
 40
15.0
 40
15.0
 40
16.0
 40
16.0
 40
16.0
 40
17.0
 40
17.0
 40
17.0
 40
18.0
 40
18.0
 40
18.0
 40
19.0
 40
19.0
 40
19.0
 40
20.0
 40
20.0
 40
20.0
 40
21.0
 40
21.0
 40
21.0
 40
22.0
 40
22.0
 40
22.0
 40
22.0
 10
602.6107461832034
 20
-404.1085506649469
 30
0.0
 10
619.2570386909974
 20
-404.1200955777385
 30
0.0
 10
634.3447370499143
 20
-388.7668662287834
 30
0.0
 10
634.0428104809489
 20
-372.1233080789462
 30
0.0
 10
634.0224370614505
 20
-371.0002288764008
 30
0.0
 10
633.920289149395
 20
-369.8142345117121
 30
0.0
 10
633.2742339461947
 20
-368.8953576728764
 30
0.0
 10
632.6053613861149
 20
-367.9440281533552
 30
0.0
 10
631.471035988281
 20
-367.444313700069
 30
0.0
 10
630.6276650610125
 20
-366.6435992031438
 30
0.0
 10
627.4971239917558
 20
-363.6713972005309
 30
0.0
 10
629.5131016697869
 20
-358.5020482002892
 30
0.0
 10
631.4710134597371
 20
-354.6548605721964
 30
0.0
 10
635.5746225062611
 20
-346.5915041980061
 30
0.0
 10
638.6565262669773
 20
-338.0088617835145
 30
0.0
 10
640.6197733575972
 20
-329.1769321824786
 30
0.0
 10
640.9728304597047
 20
-327.5886566023118
 30
0.0
 10
641.1302384435584
 20
-325.5754752889088
 30
0.0
 10
639.7686163579383
 20
-324.6848272767938
 30
0.0
 10
639.2583249212475
 20
-324.3510415221044
 30
0.0
 10
638.6269015144498
 20
-324.2606406935702
 30
0.0
 10
638.0172829472867
 20
-324.2473936161305
 30
0.0
 10
634.7431728168722
 20
-324.1762468535853
 30
0.0
 10
631.7851561983298
 20
-326.0436022622043
 30
0.0
 10
628.6610172981964
 20
-327.0257504831261
 30
0.0
 10
625.5368783980648
 20
-328.007898704047
 30
0.0
 10
621.3743060028064
 20
-327.6679165625592
 30
0.0
 10
619.9838396374652
 20
-324.702876548994
 30
0.0
 10
619.1480140443891
 20
-322.9205562835523
 30
0.0
 10
619.6364413304364
 20
-320.8332895555359
 30
0.0
 10
620.0717381462673
 20
-318.9134493589881
 30
0.0
 10
622.4341449056501
 20
-308.4942529562568
 30
0.0
 10
621.8851284855827
 20
-295.6857505689404
 30
0.0
 10
613.1317632220161
 20
-289.5604574641938
 30
0.0
 10
612.3014234217771
 20
-295.1103059002298
 30
0.0
 10
612.0955346671835
 20
-300.7533435499572
 30
0.0
 10
612.5192275945482
 20
-306.3489459057746
 30
0.0
 10
612.670278870195
 20
-308.34384071977
 30
0.0
 10
612.8544120495535
 20
-310.5262919192337
 30
0.0
 10
611.7147200915515
 20
-312.1705315744057
 30
0.0
 10
608.939287957628
 20
-316.1746622809614
 30
0.0
 10
602.7313736158975
 20
-312.85351994542
 30
0.0
 10
597.8758522167263
 20
-313.2535176452238
 30
0.0
 10
593.743820711521
 20
-313.5939141542904
 30
0.0
 10
590.3683659503039
 20
-317.0603277848822
 30
0.0
 10
589.0255719746164
 20
-320.9828854327534
 30
0.0
 10
587.6827779989289
 20
-324.9054430806254
 30
0.0
 10
588.0178653196781
 20
-329.1977048720073
 30
0.0
 10
588.713334372609
 20
-333.2849872158677
 30
0.0
 10
589.3430797192977
 20
-336.9860104617182
 30
0.0
 10
590.2566819663897
 20
-340.7603395998449
 30
0.0
 10
589.5547765888113
 20
-344.4483582349185
 30
0.0
 10
588.8528712112311
 20
-348.1363768699921
 30
0.0
 10
585.9456980642826
 20
-351.7472305172669
 30
0.0
 10
582.1916114465748
 20
-351.7786355881144
 30
0.0
 10
580.3120740082268
 20
-351.7943587045174
 30
0.0
 10
578.3841102406077
 20
-350.9348851948307
 30
0.0
 10
576.6070572601802
 20
-351.5472445407686
 30
0.0
 10
574.5159121924626
 20
-352.2678377491175
 30
0.0
 10
573.5890350465142
 20
-354.6750326455513
 30
0.0
 10
573.1117840244405
 20
-356.8347486904658
 30
0.0
 10
570.8389712188108
 20
-367.1200028106359
 30
0.0
 10
573.0176748739577
 20
-378.3103949987744
 30
0.0
 10
578.9831666159807
 20
-386.9916984315623
 30
0.0
 10
584.9486583580073
 20
-395.6730018643502
 30
0.0
 10
594.6140633364138
 20
-401.7187916014044
 30
0.0
 10
605.030432809006
 20
-403.2844761247815
 30
0.0
  0
HATCH
  5
93
330
70
100
AcDbEntity
  8
vlammen
 62
    20
420
 15817252
440
 33554687
100
AcDbHatch
 10
0.0
 20
0.0
 30
0.0
210
0.0
220
0.0
230
1.0
  2
SOLID
 70
     1
 71
     1
 91
        1
 92
        1
 93
        2
 72
     4
 94
        3
 73
     0
 74
     0
 95
       71
 96
       67
 40
0.0
 40
0.0
 40
0.0
 40
0.0
 40
1.0
 40
1.0
 40
1.0
 40
2.0
 40
2.0
 40
2.0
 40
3.0
 40
3.0
 40
3.0
 40
4.0
 40
4.0
 40
4.0
 40
5.0
 40
5.0
 40
5.0
 40
6.0
 40
6.0
 40
6.0
 40
7.0
 40
7.0
 40
7.0
 40
8.0
 40
8.0
 40
8.0
 40
9.0
 40
9.0
 40
9.0
 40
10.0
 40
10.0
 40
10.0
 40
11.0
 40
11.0
 40
11.0
 40
12.0
 40
12.0
 40
12.0
 40
13.0
 40
13.0
 40
13.0
 40
14.0
 40
14.0
 40
14.0
 40
15.0
 40
15.0
 40
15.0
 40
16.0
 40
16.0
 40
16.0
 40
17.0
 40
17.0
 40
17.0
 40
18.0
 40
18.0
 40
18.0
 40
19.0
 40
19.0
 40
19.0
 40
20.0
 40
20.0
 40
20.0
 40
21.0
 40
21.0
 40
21.0
 40
22.0
 40
22.0
 40
22.0
 40
22.0
 10
602.6107461832034
 20
-404.1085506649469
 10
619.2570386909974
 20
-404.1200955777385
 10
634.3447370499143
 20
-388.7668662287834
 10
634.0428104809489
 20
-372.1233080789462
 10
634.0224370614505
 20
-371.0002288764008
 10
633.920289149395
 20
-369.8142345117121
 10
633.2742339461947
 20
-368.8953576728764
 10
632.6053613861149
 20
-367.9440281533552
 10
631.471035988281
 20
-367.444313700069
 10
630.6276650610125
 20
-366.6435992031438
 10
627.4971239917558
 20
-363.6713972005309
 10
629.5131016697869
 20
-358.5020482002892
 10
631.4710134597371
 20
-354.6548605721964
 10
635.5746225062611
 20
-346.5915041980061
 10
638.6565262669773
 20
-338.0088617835145
 10
640.6197733575972
 20
-329.1769321824786
 10
640.9728304597047
 20
-327.5886566023118
 10
641.1302384435584
 20
-325.5754752889088
 10
639.7686163579383
 20
-324.6848272767938
 10
639.2583249212475
 20
-324.3510415221044
 10
638.6269015144498
 20
-324.2606406935702
 10
638.0172829472867
 20
-324.2473936161305
 10
634.7431728168722
 20
-324.1762468535853
 10
631.7851561983298
 20
-326.0436022622043
 10
628.6610172981964
 20
-327.0257504831261
 10
625.5368783980648
 20
-328.007898704047
 10
621.3743060028064
 20
-327.6679165625592
 10
619.9838396374652
 20
-324.702876548994
 10
619.1480140443891
 20
-322.9205562835523
 10
619.6364413304364
 20
-320.8332895555359
 10
620.0717381462673
 20
-318.9134493589881
 10
622.4341449056501
 20
-308.4942529562568
 10
621.8851284855827
 20
-295.6857505689404
 10
613.1317632220161
 20
-289.5604574641938
 10
612.3014234217771
 20
-295.1103059002298
 10
612.0955346671835
 20
-300.7533435499572
 10
612.5192275945482
 20
-306.3489459057746
 10
612.670278870195
 20
-308.34384071977
 10
612.8544120495535
 20
-310.5262919192337
 10
611.7147200915515
 20
-312.1705315744057
 10
608.939287957628
 20
-316.1746622809614
 10
602.7313736158975
 20
-312.85351994542
 10
597.8758522167263
 20
-313.2535176452238
 10
593.743820711521
 20
-313.5939141542904
 10
590.3683659503039
 20
-317.0603277848822
 10
589.0255719746164
 20
-320.9828854327534
 10
587.6827779989289
 20
-324.9054430806254
 10
588.0178653196781
 20
-329.1977048720073
 10
588.713334372609
 20
-333.2849872158677
 10
589.3430797192977
 20
-336.9860104617182
 10
590.2566819663897
 20
-340.7603395998449
 10
589.5547765888113
 20
-344.4483582349185
 10
588.8528712112311
 20
-348.1363768699921
 10
585.9456980642826
 20
-351.7472305172669
 10
582.1916114465748
 20
-351.7786355881144
 10
580.3120740082268
 20
-351.7943587045174
 10
578.3841102406077
 20
-350.9348851948307
 10
576.6070572601802
 20
-351.5472445407686
 10
574.5159121924626
 20
-352.2678377491175
 10
573.5890350465142
 20
-354.6750326455513
 10
573.1117840244405
 20
-356.8347486904658
 10
570.8389712188108
 20
-367.1200028106359
 10
573.0176748739577
 20
-378.3103949987744
 10
578.9831666159807
 20
-386.9916984315623
 10
584.9486583580073
 20
-395.6730018643502
 10
594.6140633364138
 20
-401.7187916014044
 10
605.030432809006
 20
-403.2844761247815
 97
        0
 72
     1
 10
605.030432809006
 20
-403.2844761247815
 11
602.6107461832034
 21
-404.1085506649469
 97
        0
 75
     2
 76
     1
 98
        1
 10
0.0
 20
0.0
450
        0
451
        0
460
0.0
461
0.0
452
        0
462
0.0
453
        0
470

  0
LWPOLYLINE
  5
94
330
70
100
AcDbEntity
  8
vlammen
100
AcDbPolyline
 90
        4
 70
     1
 43
0.0
 10
924.8220286459035
 20
-584.0
 10
690.8220286459036
 20
-584.0
 10
690.8220286459036
 20
-361.0
 10
924.8220286459035
 20
-361.0
  0
HATCH
  5
95
330
70
100
AcDbEntity
  8
vlammen
 62
   252
420
 10061429
440
 33554687
100
AcDbHatch
 10
0.0
 20
0.0
 30
0.0
210
0.0
220
0.0
230
1.0
  2
SOLID
 70
     1
 71
     1
 91
        1
 92
        1
 93
        4
 72
     1
 10
924.8220286459035
 20
-584.0
 11
690.8220286459036
 21
-584.0
 72
     1
 10
690.8220286459036
 20
-584.0
 11
690.8220286459036
 21
-361.0
 72
     1
 10
690.8220286459036
 20
-361.0
 11
924.8220286459035
 21
-361.0
 72
     1
 10
924.8220286459035
 20
-361.0
 11
924.8220286459035
 21
-584.0
 97
        1
330
94
 75
     2
 76
     1
 98
        1
 10
0.0
 20
0.0
450
        0
451
        0
460
0.0
461
0.0
452
        0
462
0.0
453
        0
470

  0
LWPOLYLINE
  5
96
330
70
100
AcDbEntity
  8
vlammen
100
AcDbPolyline
 90
        3
 70
     1
 43
0.0
 10
807.8220286459036
 20
-179.8271604938272
 10
690.4213935512926
 20
-360.3271604938273
 10
925.2226637405147
 20
-360.3271604938273
  0
HATCH
  5
97
330
70
100
AcDbEntity
  8
vlammen
 62
   251
420
  7562071
440
 33554687
100
AcDbHatch
 10
0.0
 20
0.0
 30
0.0
210
0.0
220
0.0
230
1.0
  2
SOLID
 70
     1
 71
     1
 91
        1
 92
        1
 93
        3
 72
     1
 10
807.8220286459036
 20
-179.8271604938272
 11
690.4213935512926
 21
-360.3271604938273
 72
     1
 10
690.4213935512926
 20
-360.3271604938273
 11
925.2226637405147
 21
-360.3271604938273
 72
     1
 10
925.2226637405147
 20
-360.3271604938273
 11
807.8220286459036
 21
-179.8271604938272
 97
        1
330
96
 75
     2
 76
     1
 98
        1
 10
0.0
 20
0.0
450
        0
451
        0
460
0.0
461
0.0
452
        0
462
0.0
453
        0
470

  0
SPLINE
  5
98
330
70
100
AcDbEntity
  8
vlammen
 62
     1
420
 16711680
370
   106
100
AcDbSpline
210
0.0
220
0.0
230
1.0
 70
     8
 71
     3
 72
    71
 73
    67
 74
     0
 42
0.0000000001
 43
0.0000000001
 40
0.0
 40
0.0
 40
0.0
 40
0.0
 40
1.0
 40
1.0
 40
1.0
 40
2.0
 40
2.0
 40
2.0
 40
3.0
 40
3.0
 40
3.0
 40
4.0
 40
4.0
 40
4.0
 40
5.0
 40
5.0
 40
5.0
 40
6.0
 40
6.0
 40
6.0
 40
7.0
 40
7.0
 40
7.0
 40
8.0
 40
8.0
 40
8.0
 40
9.0
 40
9.0
 40
9.0
 40
10.0
 40
10.0
 40
10.0
 40
11.0
 40
11.0
 40
11.0
 40
12.0
 40
12.0
 40
12.0
 40
13.0
 40
13.0
 40
13.0
 40
14.0
 40
14.0
 40
14.0
 40
15.0
 40
15.0
 40
15.0
 40
16.0
 40
16.0
 40
16.0
 40
17.0
 40
17.0
 40
17.0
 40
18.0
 40
18.0
 40
18.0
 40
19.0
 40
19.0
 40
19.0
 40
20.0
 40
20.0
 40
20.0
 40
21.0
 40
21.0
 40
21.0
 40
22.0
 40
22.0
 40
22.0
 40
22.0
 10
739.9266019896022
 20
-583.9999934932166
 30
0.0
 10
756.5728944973962
 20
-584.0115384060082
 30
0.0
 10
771.6605928563113
 20
-568.6583090570529
 30
0.0
 10
771.3586662873458
 20
-552.0147509072158
 30
0.0
 10
771.3382928678474
 20
-550.8916717046704
 30
0.0
 10
771.2361449557938
 20
-549.7056773399817
 30
0.0
 10
770.5900897525935
 20
-548.786800501146
 30
0.0
 10
769.9212171925137
 20
-547.8354709816248
 30
0.0
 10
768.7868917946798
 20
-547.3357565283386
 30
0.0
 10
767.9435208674113
 20
-546.5350420314134
 30
0.0
 10
764.8129797981527
 20
-543.5628400288005
 30
0.0
 10
766.8289574761838
 20
-538.3934910285588
 30
0.0
 10
768.7868692661359
 20
-534.546303400466
 30
0.0
 10
772.89047831266
 20
-526.4829470262757
 30
0.0
 10
775.9723820733743
 20
-517.9003046117832
 30
0.0
 10
777.9356291639961
 20
-509.0683750107491
 30
0.0
 10
778.2886862661034
 20
-507.4800994305806
 30
0.0
 10
778.4460942499572
 20
-505.4669181171775
 30
0.0
 10
777.0844721643371
 20
-504.5762701050626
 30
0.0
 10
776.5741807276463
 20
-504.2424843503741
 30
0.0
 10
775.9427573208486
 20
-504.1520835218398
 30
0.0
 10
775.3331387536855
 20
-504.1388364443991
 30
0.0
 10
772.0590286232691
 20
-504.0676896818549
 30
0.0
 10
769.1010120047285
 20
-505.9350450904749
 30
0.0
 10
765.9768731045951
 20
-506.9171933113957
 30
0.0
 10
762.8527342044617
 20
-507.8993415323166
 30
0.0
 10
758.6901618092051
 20
-507.5593593908288
 30
0.0
 10
757.299695443864
 20
-504.5943193772636
 30
0.0
 10
756.4638698507878
 20
-502.8119991118219
 30
0.0
 10
756.9522971368351
 20
-500.7247323838055
 30
0.0
 10
757.3875939526661
 20
-498.8048921872578
 30
0.0
 10
759.750000712047
 20
-488.3856957845264
 30
0.0
 10
759.2009842919797
 20
-475.57719339721
 30
0.0
 10
750.4476190284149
 20
-469.4519002924635
 30
0.0
 10
749.6172792281758
 20
-475.0017487284995
 30
0.0
 10
749.4113904735822
 20
-480.6447863782268
 30
0.0
 10
749.835083400947
 20
-486.2403887340442
 30
0.0
 10
749.9861346765937
 20
-488.2352835480396
 30
0.0
 10
750.1702678559523
 20
-490.4177347475033
 30
0.0
 10
749.0305758979484
 20
-492.0619744026753
 30
0.0
 10
746.2551437640249
 20
-496.066105109231
 30
0.0
 10
740.0472294222963
 20
-492.7449627736896
 30
0.0
 10
735.1917080231251
 20
-493.1449604734934
 30
0.0
 10
731.0596765179179
 20
-493.48535698256
 30
0.0
 10
727.6842217567009
 20
-496.9517706131519
 30
0.0
 10
726.3414277810134
 20
-500.874328261023
 30
0.0
 10
724.9986338053276
 20
-504.7968859088942
 30
0.0
 10
725.3337211260769
 20
-509.0891477002769
 30
0.0
 10
726.0291901790078
 20
-513.1764300441373
 30
0.0
 10
726.6589355256947
 20
-516.8774532899878
 30
0.0
 10
727.5725377727867
 20
-520.6517824281145
 30
0.0
 10
726.8706323952101
 20
-524.3398010631881
 30
0.0
 10
726.168727017628
 20
-528.0278196982617
 30
0.0
 10
723.2615538706795
 20
-531.6386733455365
 30
0.0
 10
719.5074672529735
 20
-531.670078416384
 30
0.0
 10
717.6279298146255
 20
-531.6858015327871
 30
0.0
 10
715.6999660470046
 20
-530.8263280231003
 30
0.0
 10
713.9229130665771
 20
-531.4386873690382
 30
0.0
 10
711.8317679988613
 20
-532.1592805773871
 30
0.0
 10
710.9048908529111
 20
-534.5664754738209
 30
0.0
 10
710.4276398308375
 20
-536.7261915187355
 30
0.0
 10
708.1548270252096
 20
-547.0114456389056
 30
0.0
 10
710.3335306803565
 20
-558.201837827044
 30
0.0
 10
716.2990224223794
 20
-566.8831412598319
 30
0.0
 10
722.2645141644061
 20
-575.5644446926198
 30
0.0
 10
731.9299191428108
 20
-581.6102344296742
 30
0.0
 10
742.3462886154029
 20
-583.1759189530512
 30
0.0
  0
HATCH
  5
99
330
70
100
AcDbEntity
  8
vlammen
 62
    20
420
 15817252
440
 33554687
100
AcDbHatch
 10
0.0
 20
0.0
 30
0.0
210
0.0
220
0.0
230
1.0
  2
SOLID
 70
     1
 71
     1
 91
        1
 92
        1
 93
        2
 72
     4
 94
        3
 73
     0
 74
     0
 95
       71
 96
       67
 40
0.0
 40
0.0
 40
0.0
 40
0.0
 40
1.0
 40
1.0
 40
1.0
 40
2.0
 40
2.0
 40
2.0
 40
3.0
 40
3.0
 40
3.0
 40
4.0
 40
4.0
 40
4.0
 40
5.0
 40
5.0
 40
5.0
 40
6.0
 40
6.0
 40
6.0
 40
7.0
 40
7.0
 40
7.0
 40
8.0
 40
8.0
 40
8.0
 40
9.0
 40
9.0
 40
9.0
 40
10.0
 40
10.0
 40
10.0
 40
11.0
 40
11.0
 40
11.0
 40
12.0
 40
12.0
 40
12.0
 40
13.0
 40
13.0
 40
13.0
 40
14.0
 40
14.0
 40
14.0
 40
15.0
 40
15.0
 40
15.0
 40
16.0
 40
16.0
 40
16.0
 40
17.0
 40
17.0
 40
17.0
 40
18.0
 40
18.0
 40
18.0
 40
19.0
 40
19.0
 40
19.0
 40
20.0
 40
20.0
 40
20.0
 40
21.0
 40
21.0
 40
21.0
 40
22.0
 40
22.0
 40
22.0
 40
22.0
 10
739.9266019896022
 20
-583.9999934932166
 10
756.5728944973962
 20
-584.0115384060082
 10
771.6605928563113
 20
-568.6583090570529
 10
771.3586662873458
 20
-552.0147509072158
 10
771.3382928678474
 20
-550.8916717046704
 10
771.2361449557938
 20
-549.7056773399817
 10
770.5900897525935
 20
-548.786800501146
 10
769.9212171925137
 20
-547.8354709816248
 10
768.7868917946798
 20
-547.3357565283386
 10
767.9435208674113
 20
-546.5350420314134
 10
764.8129797981527
 20
-543.5628400288005
 10
766.8289574761838
 20
-538.3934910285588
 10
768.7868692661359
 20
-534.546303400466
 10
772.89047831266
 20
-526.4829470262757
 10
775.9723820733743
 20
-517.9003046117832
 10
777.9356291639961
 20
-509.0683750107491
 10
778.2886862661034
 20
-507.4800994305806
 10
778.4460942499572
 20
-505.4669181171775
 10
777.0844721643371
 20
-504.5762701050626
 10
776.5741807276463
 20
-504.2424843503741
 10
775.9427573208486
 20
-504.1520835218398
 10
775.3331387536855
 20
-504.1388364443991
 10
772.0590286232691
 20
-504.0676896818549
 10
769.1010120047285
 20
-505.9350450904749
 10
765.9768731045951
 20
-506.9171933113957
 10
762.8527342044617
 20
-507.8993415323166
 10
758.6901618092051
 20
-507.5593593908288
 10
757.299695443864
 20
-504.5943193772636
 10
756.4638698507878
 20
-502.8119991118219
 10
756.9522971368351
 20
-500.7247323838055
 10
757.3875939526661
 20
-498.8048921872578
 10
759.750000712047
 20
-488.3856957845264
 10
759.2009842919797
 20
-475.57719339721
 10
750.4476190284149
 20
-469.4519002924635
 10
749.6172792281758
 20
-475.0017487284995
 10
749.4113904735822
 20
-480.6447863782268
 10
749.835083400947
 20
-486.2403887340442
 10
749.9861346765937
 20
-488.2352835480396
 10
750.1702678559523
 20
-490.4177347475033
 10
749.0305758979484
 20
-492.0619744026753
 10
746.2551437640249
 20
-496.066105109231
 10
740.0472294222963
 20
-492.7449627736896
 10
735.1917080231251
 20
-493.1449604734934
 10
731.0596765179179
 20
-493.48535698256
 10
727.6842217567009
 20
-496.9517706131519
 10
726.3414277810134
 20
-500.874328261023
 10
724.9986338053276
 20
-504.7968859088942
 10
725.3337211260769
 20
-509.0891477002769
 10
726.0291901790078
 20
-513.1764300441373
 10
726.6589355256947
 20
-516.8774532899878
 10
727.5725377727867
 20
-520.6517824281145
 10
726.8706323952101
 20
-524.3398010631881
 10
726.168727017628
 20
-528.0278196982617
 10
723.2615538706795
 20
-531.6386733455365
 10
719.5074672529735
 20
-531.670078416384
 10
717.6279298146255
 20
-531.6858015327871
 10
715.6999660470046
 20
-530.8263280231003
 10
713.9229130665771
 20
-531.4386873690382
 10
711.8317679988613
 20
-532.1592805773871
 10
710.9048908529111
 20
-534.5664754738209
 10
710.4276398308375
 20
-536.7261915187355
 10
708.1548270252096
 20
-547.0114456389056
 10
710.3335306803565
 20
-558.201837827044
 10
716.2990224223794
 20
-566.8831412598319
 10
722.2645141644061
 20
-575.5644446926198
 10
731.9299191428108
 20
-581.6102344296742
 10
742.3462886154029
 20
-583.1759189530512
 97
        0
 72
     1
 10
742.3462886154029
 20
-583.1759189530511
 11
739.9266019896022
 21
-583.9999934932166
 97
        0
 75
     2
 76
     1
 98
        1
 10
0.0
 20
0.0
450
        0
451
        0
460
0.0
461
0.0
452
        0
462
0.0
453
        0
470

  0
SPLINE
  5
9A
330
70
100
AcDbEntity
  8
vlammen
 62
     1
420
 16711680
370
   106
100
AcDbSpline
210
0.0
220
0.0
230
1.0
 70
     8
 71
     3
 72
    71
 73
    67
 74
     0
 42
0.0000000001
 43
0.0000000001
 40
0.0
 40
0.0
 40
0.0
 40
0.0
 40
1.0
 40
1.0
 40
1.0
 40
2.0
 40
2.0
 40
2.0
 40
3.0
 40
3.0
 40
3.0
 40
4.0
 40
4.0
 40
4.0
 40
5.0
 40
5.0
 40
5.0
 40
6.0
 40
6.0
 40
6.0
 40
7.0
 40
7.0
 40
7.0
 40
8.0
 40
8.0
 40
8.0
 40
9.0
 40
9.0
 40
9.0
 40
10.0
 40
10.0
 40
10.0
 40
11.0
 40
11.0
 40
11.0
 40
12.0
 40
12.0
 40
12.0
 40
13.0
 40
13.0
 40
13.0
 40
14.0
 40
14.0
 40
14.0
 40
15.0
 40
15.0
 40
15.0
 40
16.0
 40
16.0
 40
16.0
 40
17.0
 40
17.0
 40
17.0
 40
18.0
 40
18.0
 40
18.0
 40
19.0
 40
19.0
 40
19.0
 40
20.0
 40
20.0
 40
20.0
 40
21.0
 40
21.0
 40
21.0
 40
22.0
 40
22.0
 40
22.0
 40
22.0
 10
853.9266019896022
 20
-311.9357111587742
 30
0.0
 10
870.5728944973962
 20
-311.9472560715658
 30
0.0
 10
885.6605928563112
 20
-296.5940267226106
 30
0.0
 10
885.3586662873459
 20
-279.9504685727734
 30
0.0
 10
885.3382928678474
 20
-278.827389370228
 30
0.0
 10
885.2361449557939
 20
-277.6413950055394
 30
0.0
 10
884.5900897525934
 20
-276.7225181667036
 30
0.0
 10
883.9212171925137
 20
-275.7711886471825
 30
0.0
 10
882.7868917946798
 20
-275.2714741938962
 30
0.0
 10
881.9435208674113
 20
-274.4707596969711
 30
0.0
 10
878.8129797981527
 20
-271.4985576943582
 30
0.0
 10
880.8289574761838
 20
-266.3292086941165
 30
0.0
 10
882.7868692661359
 20
-262.4820210660236
 30
0.0
 10
886.89047831266
 20
-254.4186646918333
 30
0.0
 10
889.9723820733743
 20
-245.8360222773417
 30
0.0
 10
891.935629163996
 20
-237.0040926763059
 30
0.0
 10
892.2886862661034
 20
-235.4158170961391
 30
0.0
 10
892.4460942499573
 20
-233.4026357827361
 30
0.0
 10
891.0844721643369
 20
-232.5119877706211
 30
0.0
 10
890.5741807276463
 20
-232.1782020159317
 30
0.0
 10
889.9427573208486
 20
-232.0878011873974
 30
0.0
 10
889.3331387536855
 20
-232.0745541099577
 30
0.0
 10
886.0590286232691
 20
-232.0034073474126
 30
0.0
 10
883.1010120047285
 20
-233.8707627560316
 30
0.0
 10
879.9768731045951
 20
-234.8529109769533
 30
0.0
 10
876.8527342044617
 20
-235.8350591978742
 30
0.0
 10
872.6901618092052
 20
-235.4950770563864
 30
0.0
 10
871.299695443864
 20
-232.5300370428213
 30
0.0
 10
870.4638698507878
 20
-230.7477167773795
 30
0.0
 10
870.952297136835
 20
-228.6604500493631
 30
0.0
 10
871.387593952666
 20
-226.7406098528154
 30
0.0
 10
873.750000712047
 20
-216.321413450084
 30
0.0
 10
873.2009842919797
 20
-203.5129110627677
 30
0.0
 10
864.447619028415
 20
-197.3876179580211
 30
0.0
 10
863.6172792281758
 20
-202.9374663940571
 30
0.0
 10
863.4113904735823
 20
-208.5805040437845
 30
0.0
 10
863.835083400947
 20
-214.1761063996018
 30
0.0
 10
863.9861346765938
 20
-216.1710012135973
 30
0.0
 10
864.1702678559523
 20
-218.3534524130609
 30
0.0
 10
863.0305758979485
 20
-219.9976920682329
 30
0.0
 10
860.2551437640249
 20
-224.0018227747887
 30
0.0
 10
854.0472294222963
 20
-220.6806804392472
 30
0.0
 10
849.1917080231251
 20
-221.0806781390511
 30
0.0
 10
845.0596765179179
 20
-221.4210746481176
 30
0.0
 10
841.6842217567028
 20
-224.8874882787095
 30
0.0
 10
840.3414277810153
 20
-228.8100459265806
 30
0.0
 10
838.9986338053276
 20
-232.7326035744527
 30
0.0
 10
839.3337211260767
 20
-237.0248653658346
 30
0.0
 10
840.0291901790078
 20
-241.1121477096949
 30
0.0
 10
840.6589355256947
 20
-244.8131709555455
 30
0.0
 10
841.5725377727866
 20
-248.5875000936721
 30
0.0
 10
840.8706323952101
 20
-252.2755187287458
 30
0.0
 10
840.1687270176298
 20
-255.9635373638193
 30
0.0
 10
837.2615538706813
 20
-259.5743910110941
 30
0.0
 10
833.5074672529735
 20
-259.6057960819416
 30
0.0
 10
831.6279298146255
 20
-259.6215191983447
 30
0.0
 10
829.6999660470063
 20
-258.7620456886579
 30
0.0
 10
827.9229130665772
 20
-259.3744050345959
 30
0.0
 10
825.8317679988612
 20
-260.0949982429447
 30
0.0
 10
824.9048908529111
 20
-262.5021931393785
 30
0.0
 10
824.4276398308393
 20
-264.6619091842931
 30
0.0
 10
822.1548270252096
 20
-274.9471633044632
 30
0.0
 10
824.3335306803565
 20
-286.1375554926017
 30
0.0
 10
830.2990224223794
 20
-294.8188589253896
 30
0.0
 10
836.2645141644062
 20
-303.5001623581775
 30
0.0
 10
845.9299191428108
 20
-309.5459520952318
 30
0.0
 10
856.3462886154047
 20
-311.1116366186088
 30
0.0
  0
HATCH
  5
9B
330
70
100
AcDbEntity
  8
vlammen
 62
    20
420
 15817252
440
 33554687
100
AcDbHatch
 10
0.0
 20
0.0
 30
0.0
210
0.0
220
0.0
230
1.0
  2
SOLID
 70
     1
 71
     1
 91
        1
 92
        1
 93
        2
 72
     4
 94
        3
 73
     0
 74
     0
 95
       71
 96
       67
 40
0.0
 40
0.0
 40
0.0
 40
0.0
 40
1.0
 40
1.0
 40
1.0
 40
2.0
 40
2.0
 40
2.0
 40
3.0
 40
3.0
 40
3.0
 40
4.0
 40
4.0
 40
4.0
 40
5.0
 40
5.0
 40
5.0
 40
6.0
 40
6.0
 40
6.0
 40
7.0
 40
7.0
 40
7.0
 40
8.0
 40
8.0
 40
8.0
 40
9.0
 40
9.0
 40
9.0
 40
10.0
 40
10.0
 40
10.0
 40
11.0
 40
11.0
 40
11.0
 40
12.0
 40
12.0
 40
12.0
 40
13.0
 40
13.0
 40
13.0
 40
14.0
 40
14.0
 40
14.0
 40
15.0
 40
15.0
 40
15.0
 40
16.0
 40
16.0
 40
16.0
 40
17.0
 40
17.0
 40
17.0
 40
18.0
 40
18.0
 40
18.0
 40
19.0
 40
19.0
 40
19.0
 40
20.0
 40
20.0
 40
20.0
 40
21.0
 40
21.0
 40
21.0
 40
22.0
 40
22.0
 40
22.0
 40
22.0
 10
853.9266019896022
 20
-311.9357111587742
 10
870.5728944973962
 20
-311.9472560715658
 10
885.6605928563112
 20
-296.5940267226106
 10
885.3586662873459
 20
-279.9504685727734
 10
885.3382928678474
 20
-278.827389370228
 10
885.2361449557939
 20
-277.6413950055394
 10
884.5900897525934
 20
-276.7225181667036
 10
883.9212171925137
 20
-275.7711886471825
 10
882.7868917946798
 20
-275.2714741938962
 10
881.9435208674113
 20
-274.4707596969711
 10
878.8129797981527
 20
-271.4985576943582
 10
880.8289574761838
 20
-266.3292086941165
 10
882.7868692661359
 20
-262.4820210660236
 10
886.89047831266
 20
-254.4186646918333
 10
889.9723820733743
 20
-245.8360222773417
 10
891.935629163996
 20
-237.0040926763059
 10
892.2886862661034
 20
-235.4158170961391
 10
892.4460942499573
 20
-233.4026357827361
 10
891.0844721643369
 20
-232.5119877706211
 10
890.5741807276463
 20
-232.1782020159317
 10
889.9427573208486
 20
-232.0878011873974
 10
889.3331387536855
 20
-232.0745541099577
 10
886.0590286232691
 20
-232.0034073474126
 10
883.1010120047285
 20
-233.8707627560316
 10
879.9768731045951
 20
-234.8529109769533
 10
876.8527342044617
 20
-235.8350591978742
 10
872.6901618092052
 20
-235.4950770563864
 10
871.299695443864
 20
-232.5300370428213
 10
870.4638698507878
 20
-230.7477167773795
 10
870.952297136835
 20
-228.6604500493631
 10
871.387593952666
 20
-226.7406098528154
 10
873.750000712047
 20
-216.321413450084
 10
873.2009842919797
 20
-203.5129110627677
 10
864.447619028415
 20
-197.3876179580211
 10
863.6172792281758
 20
-202.9374663940571
 10
863.4113904735823
 20
-208.5805040437845
 10
863.835083400947
 20
-214.1761063996018
 10
863.9861346765938
 20
-216.1710012135973
 10
864.1702678559523
 20
-218.3534524130609
 10
863.0305758979485
 20
-219.9976920682329
 10
860.2551437640249
 20
-224.0018227747887
 10
854.0472294222963
 20
-220.6806804392472
 10
849.1917080231251
 20
-221.0806781390511
 10
845.0596765179179
 20
-221.4210746481176
 10
841.6842217567028
 20
-224.8874882787095
 10
840.3414277810153
 20
-228.8100459265806
 10
838.9986338053276
 20
-232.7326035744527
 10
839.3337211260767
 20
-237.0248653658346
 10
840.0291901790078
 20
-241.1121477096949
 10
840.6589355256947
 20
-244.8131709555455
 10
841.5725377727866
 20
-248.5875000936721
 10
840.8706323952101
 20
-252.2755187287458
 10
840.1687270176298
 20
-255.9635373638193
 10
837.2615538706813
 20
-259.5743910110941
 10
833.5074672529735
 20
-259.6057960819416
 10
831.6279298146255
 20
-259.6215191983447
 10
829.6999660470063
 20
-258.7620456886579
 10
827.9229130665772
 20
-259.3744050345959
 10
825.8317679988612
 20
-260.0949982429447
 10
824.9048908529111
 20
-262.5021931393785
 10
824.4276398308393
 20
-264.6619091842931
 10
822.1548270252096
 20
-274.9471633044632
 10
824.3335306803565
 20
-286.1375554926017
 10
830.2990224223794
 20
-294.8188589253896
 10
836.2645141644062
 20
-303.5001623581775
 10
845.9299191428108
 20
-309.5459520952318
 10
856.3462886154047
 20
-311.1116366186088
 97
        0
 72
     1
 10
856.3462886154047
 20
-311.1116366186088
 11
853.9266019896022
 21
-311.9357111587742
 97
        0
 75
     2
 76
     1
 98
        1
 10
0.0
 20
0.0
450
        0
451
        0
460
0.0
461
0.0
452
        0
462
0.0
453
        0
470

  0
ENDSEC
  0
SECTION
  2
OBJECTS
  0
DICTIONARY
  5
C
330
0
100
AcDbDictionary
281
     1
  3
ACAD_COLOR
350
63
  3
ACAD_DETAILVIEWSTYLE
350
6A
  3
ACAD_GROUP
350
D
  3
ACAD_LAYOUT
350
62
  3
ACAD_MATERIAL
350
10
  3
ACAD_MLEADERSTYLE
350
66
  3
ACAD_MLINESTYLE
350
5F
  3
ACAD_PLOTSETTINGS
350
61
  3
ACAD_PLOTSTYLENAME
350
E
  3
ACAD_SCALELIST
350
42
  3
ACAD_SECTIONVIEWSTYLE
350
68
  3
ACAD_TABLESTYLE
350
64
  3
ACAD_VISUALSTYLE
350
29
  3
ACDB_RECOMPOSE_DATA
350
A6
  3
AcDbVariableDictionary
350
9E
  0
DICTIONARY
  5
63
102
{ACAD_REACTORS
330
C
102
}
330
C
100
AcDbDictionary
281
     1
  0
DICTIONARY
  5
6A
102
{ACAD_REACTORS
330
C
102
}
330
C
100
AcDbDictionary
281
     1
  3
Imperial24
350
6B
  0
DICTIONARY
  5
D
102
{ACAD_REACTORS
330
C
102
}
330
C
100
AcDbDictionary
281
     1
  0
DICTIONARY
  5
62
102
{ACAD_REACTORS
330
C
102
}
330
C
100
AcDbDictionary
281
     1
  3
Layout1
350
6F
  3
Layout2
350
77
  3
Model
350
73
  0
DICTIONARY
  5
10
102
{ACAD_REACTORS
330
C
102
}
330
C
100
AcDbDictionary
281
     1
  3
ByBlock
350
19
  3
ByLayer
350
11
  3
Global
350
21
  0
DICTIONARY
  5
66
102
{ACAD_REACTORS
330
C
102
}
330
C
100
AcDbDictionary
281
     1
  3
Standard
350
67
  0
DICTIONARY
  5
5F
102
{ACAD_REACTORS
330
C
102
}
330
C
100
AcDbDictionary
281
     1
  3
Standard
350
60
  0
DICTIONARY
  5
61
102
{ACAD_REACTORS
330
C
102
}
330
C
100
AcDbDictionary
281
     1
  0
ACDBDICTIONARYWDFLT
  5
E
102
{ACAD_REACTORS
330
C
102
}
330
C
100
AcDbDictionary
281
     1
  3
Normal
350
F
100
AcDbDictionaryWithDefault
340
F
  0
DICTIONARY
  5
42
102
{ACAD_REACTORS
330
C
102
}
330
C
100
AcDbDictionary
281
     1
  3
A0
350
43
  3
A1
350
44
  3
A2
350
45
  3
A3
350
46
  3
A4
350
47
  3
A5
350
48
  3
A6
350
49
  3
A7
350
4A
  3
A8
350
4B
  3
A9
350
4C
  3
B0
350
4D
  3
B1
350
4E
  3
B2
350
4F
  3
B3
350
50
  3
B4
350
51
  3
B5
350
52
  3
B6
350
53
  0
DICTIONARY
  5
68
102
{ACAD_REACTORS
330
C
102
}
330
C
100
AcDbDictionary
281
     1
  3
Imperial24
350
69
  0
DICTIONARY
  5
64
102
{ACAD_REACTORS
330
C
102
}
330
C
100
AcDbDictionary
281
     1
  3
Standard
350
65
  0
DICTIONARY
  5
29
102
{ACAD_REACTORS
330
C
102
}
330
C
100
AcDbDictionary
281
     1
  3
2dWireframe
350
2F
  3
Basic
350
2E
  3
Brighten
350
35
  3
ColorChange
350
39
  3
Conceptual
350
32
  3
Dim
350
34
  3
EdgeColorOff
350
41
  3
Facepattern
350
38
  3
Flat
350
2A
  3
FlatWithEdges
350
2B
  3
Gouraud
350
2C
  3
GouraudWithEdges
350
2D
  3
Hidden
350
31
  3
JitterOff
350
3F
  3
Linepattern
350
37
  3
OverhangOff
350
40
  3
Realistic
350
33
  3
Shaded
350
3E
  3
Shaded with edges
350
3D
  3
Shades of Gray
350
3A
  3
Sketchy
350
3B
  3
Thicken
350
36
  3
Wireframe
350
30
  3
X-Ray
350
3C
  0
XRECORD
  5
A6
102
{ACAD_REACTORS
330
C
102
}
330
C
100
AcDbXrecord
280
     1
 90
        1
330
65
  0
DICTIONARY
  5
9E
102
{ACAD_REACTORS
330
C
102
}
330
C
100
AcDbDictionary
281
     1
  3
CANNOSCALE
350
A3
  3
CMLEADERSTYLE
350
A0
  3
CTABLESTYLE
350
9F
  3
CVIEWDETAILSTYLE
350
A1
  3
CVIEWSECTIONSTYLE
350
A2
  0
ACDBDETAILVIEWSTYLE
  5
6B
102
{ACAD_REACTORS
330
6A
102
}
330
6A
100
AcDbModelDocViewStyle
 70
     0
  3
Imperial24
290
     1
300
Imperial24
 90
        0
100
AcDbDetailViewStyle
 70
     0
 71
     0
 90
        3
 71
     1
340
55
 62
   256
 40
0.24
340
0
 62
   256
 40
0.24
300

 40
0.36
280
     3
 71
     2
340
5D
 90
       25
 62
   256
 71
     3
340
55
 62
   256
 40
0.24
 90
        1
 40
0.75
 90
        1
300
%<\AcVar ViewType \f "%tc1">% %<\AcVar ViewDetailId>%\PSCALE %<\AcVar ViewScale \f "%sn">%
 71
     4
340
5D
 90
       25
 62
   256
340
5D
 90
       25
 62
   256
280
     0
  0
LAYOUT
  5
6F
102
{ACAD_REACTORS
330
62
102
}
330
62
100
AcDbPlotSettings
  1

  2

  4

  6

 40
0.0
 41
0.0
 42
0.0
 43
0.0
 44
0.0
 45
0.0
 46
0.0
 47
0.0
 48
0.0
 49
0.0
140
0.0
141
0.0
142
1.0
143
1.0
 70
   688
 72
     0
 73
     0
 74
     5
  7

 75
    16
147
1.0
 76
     0
 77
     2
 78
   300
148
0.0
149
0.0
100
AcDbLayout
  1
Layout1
 70
     1
 71
     1
 10
0.0
 20
0.0
 11
12.0
 21
9.0
 12
0.0
 22
0.0
 32
0.0
 14
0.0
 24
0.0
 34
0.0
 15
0.0
 25
0.0
 35
0.0
146
0.0
 13
0.0
 23
0.0
 33
0.0
 16
1.0
 26
0.0
 36
0.0
 17
0.0
 27
1.0
 37
0.0
 76
     0
330
6C
  0
LAYOUT
  5
77
102
{ACAD_REACTORS
330
62
102
}
330
62
100
AcDbPlotSettings
  1

  2

  4

  6

 40
0.0
 41
0.0
 42
0.0
 43
0.0
 44
0.0
 45
0.0
 46
0.0
 47
0.0
 48
0.0
 49
0.0
140
0.0
141
0.0
142
1.0
143
1.0
 70
   688
 72
     0
 73
     0
 74
     5
  7

 75
    16
147
1.0
 76
     0
 77
     2
 78
   300
148
0.0
149
0.0
100
AcDbLayout
  1
Layout2
 70
     1
 71
     2
 10
0.0
 20
0.0
 11
12.0
 21
9.0
 12
0.0
 22
0.0
 32
0.0
 14
0.0
 24
0.0
 34
0.0
 15
0.0
 25
0.0
 35
0.0
146
0.0
 13
0.0
 23
0.0
 33
0.0
 16
1.0
 26
0.0
 36
0.0
 17
0.0
 27
1.0
 37
0.0
 76
     0
330
74
  0
LAYOUT
  5
73
102
{ACAD_REACTORS
330
62
102
}
330
62
100
AcDbPlotSettings
  1

  2

  4

  6

 40
0.0
 41
0.0
 42
0.0
 43
0.0
 44
0.0
 45
0.0
 46
0.0
 47
0.0
 48
0.0
 49
0.0
140
0.0
141
0.0
142
1.0
143
1.0
 70
  1712
 72
     0
 73
     0
 74
     0
  7

 75
     0
147
1.0
 76
     0
 77
     2
 78
   300
148
0.0
149
0.0
100
AcDbLayout
  1
Model
 70
     1
 71
     0
 10
0.0
 20
0.0
 11
12.0
 21
9.0
 12
0.0
 22
0.0
 32
0.0
 14
0.0
 24
0.0
 34
0.0
 15
0.0
 25
0.0
 35
0.0
146
0.0
 13
0.0
 23
0.0
 33
0.0
 16
1.0
 26
0.0
 36
0.0
 17
0.0
 27
1.0
 37
0.0
 76
     0
330
70
  0
MATERIAL
  5
19
102
{ACAD_XDICTIONARY
360
1A
102
}
102
{ACAD_REACTORS
330
10
102
}
330
10
100
AcDbMaterial
  1
ByBlock
 72
     0
 43
0.0208333333333333
 43
0.0
 43
0.0
 43
0.0
 43
0.0
 43
0.0208333333333333
 43
0.0
 43
0.0
 43
0.0
 43
0.0
 43
1.0
 43
0.0
 43
0.0
 43
0.0
 43
0.0
 43
1.0
 77
     0
 47
0.0208333333333333
 47
0.0
 47
0.0
 47
0.0
 47
0.0
 47
0.0208333333333333
 47
0.0
 47
0.0
 47
0.0
 47
0.0
 47
1.0
 47
0.0
 47
0.0
 47
0.0
 47
0.0
 47
1.0
171
     0
 49
0.0208333333333333
 49
0.0
 49
0.0
 49
0.0
 49
0.0
 49
0.0208333333333333
 49
0.0
 49
0.0
 49
0.0
 49
0.0
 49
1.0
 49
0.0
 49
0.0
 49
0.0
 49
0.0
 49
1.0
175
     0
142
0.0208333333333333
142
0.0
142
0.0
142
0.0
142
0.0
142
0.0208333333333333
142
0.0
142
0.0
142
0.0
142
0.0
142
1.0
142
0.0
142
0.0
142
0.0
142
0.0
142
1.0
179
     0
144
0.0208333333333333
144
0.0
144
0.0
144
0.0
144
0.0
144
0.0208333333333333
144
0.0
144
0.0
144
0.0
144
0.0
144
1.0
144
0.0
144
0.0
144
0.0
144
0.0
144
1.0
147
0.0208333333333333
147
0.0
147
0.0
147
0.0
147
0.0
147
0.0208333333333333
147
0.0
147
0.0
147
0.0
147
0.0
147
1.0
147
0.0
147
0.0
147
0.0
147
0.0
147
1.0
  0
MATERIAL
  5
11
102
{ACAD_XDICTIONARY
360
12
102
}
102
{ACAD_REACTORS
330
10
102
}
330
10
100
AcDbMaterial
  1
ByLayer
 72
     0
 43
0.0208333333333333
 43
0.0
 43
0.0
 43
0.0
 43
0.0
 43
0.0208333333333333
 43
0.0
 43
0.0
 43
0.0
 43
0.0
 43
1.0
 43
0.0
 43
0.0
 43
0.0
 43
0.0
 43
1.0
 77
     0
 47
0.0208333333333333
 47
0.0
 47
0.0
 47
0.0
 47
0.0
 47
0.0208333333333333
 47
0.0
 47
0.0
 47
0.0
 47
0.0
 47
1.0
 47
0.0
 47
0.0
 47
0.0
 47
0.0
 47
1.0
171
     0
 49
0.0208333333333333
 49
0.0
 49
0.0
 49
0.0
 49
0.0
 49
0.0208333333333333
 49
0.0
 49
0.0
 49
0.0
 49
0.0
 49
1.0
 49
0.0
 49
0.0
 49
0.0
 49
0.0
 49
1.0
175
     0
142
0.0208333333333333
142
0.0
142
0.0
142
0.0
142
0.0
142
0.0208333333333333
142
0.0
142
0.0
142
0.0
142
0.0
142
1.0
142
0.0
142
0.0
142
0.0
142
0.0
142
1.0
179
     0
144
0.0208333333333333
144
0.0
144
0.0
144
0.0
144
0.0
144
0.0208333333333333
144
0.0
144
0.0
144
0.0
144
0.0
144
1.0
144
0.0
144
0.0
144
0.0
144
0.0
144
1.0
147
0.0208333333333333
147
0.0
147
0.0
147
0.0
147
0.0
147
0.0208333333333333
147
0.0
147
0.0
147
0.0
147
0.0
147
1.0
147
0.0
147
0.0
147
0.0
147
0.0
147
1.0
  0
MATERIAL
  5
21
102
{ACAD_XDICTIONARY
360
22
102
}
102
{ACAD_REACTORS
330
10
102
}
330
10
100
AcDbMaterial
  1
Global
 72
     0
 43
0.0208333333333333
 43
0.0
 43
0.0
 43
0.0
 43
0.0
 43
0.0208333333333333
 43
0.0
 43
0.0
 43
0.0
 43
0.0
 43
1.0
 43
0.0
 43
0.0
 43
0.0
 43
0.0
 43
1.0
 77
     0
 47
0.0208333333333333
 47
0.0
 47
0.0
 47
0.0
 47
0.0
 47
0.0208333333333333
 47
0.0
 47
0.0
 47
0.0
 47
0.0
 47
1.0
 47
0.0
 47
0.0
 47
0.0
 47
0.0
 47
1.0
171
     0
 49
0.0208333333333333
 49
0.0
 49
0.0
 49
0.0
 49
0.0
 49
0.0208333333333333
 49
0.0
 49
0.0
 49
0.0
 49
0.0
 49
1.0
 49
0.0
 49
0.0
 49
0.0
 49
0.0
 49
1.0
175
     0
142
0.0208333333333333
142
0.0
142
0.0
142
0.0
142
0.0
142
0.0208333333333333
142
0.0
142
0.0
142
0.0
142
0.0
142
1.0
142
0.0
142
0.0
142
0.0
142
0.0
142
1.0
179
     0
144
0.0208333333333333
144
0.0
144
0.0
144
0.0
144
0.0
144
0.0208333333333333
144
0.0
144
0.0
144
0.0
144
0.0
144
1.0
144
0.0
144
0.0
144
0.0
144
0.0
144
1.0
147
0.0208333333333333
147
0.0
147
0.0
147
0.0
147
0.0
147
0.0208333333333333
147
0.0
147
0.0
147
0.0
147
0.0
147
1.0
147
0.0
147
0.0
147
0.0
147
0.0
147
1.0
  0
MLEADERSTYLE
  5
67
102
{ACAD_REACTORS
330
66
102
}
330
66
100
AcDbMLeaderStyle
179
     2
170
     2
171
     1
172
     0
 90
        2
 40
0.0
 41
0.0
173
     1
 91
-1056964608
340
5B
 92
       -2
290
     1
 42
0.09
291
     1
 43
0.36
  3
Standard
 44
0.18
300

342
55
174
     1
178
     6
175
     1
176
     0
 93
-1056964608
 45
0.18
292
     0
297
     0
 46
0.18
 94
-1056964608
 47
1.0
 49
1.0
140
1.0
293
     1
141
0.0
294
     1
177
     0
142
1.0
295
     1
296
     0
143
0.125
271
     0
272
     9
273
     9
298
     1
  0
MLINESTYLE
  5
60
102
{ACAD_REACTORS
330
5F
102
}
330
5F
100
AcDbMlineStyle
  2
STANDARD
 70
     0
  3

 62
   256
 51
90.0
 52
90.0
 71
     2
 49
0.5
 62
   256
  6
BYLAYER
 49
-0.5
 62
   256
  6
BYLAYER
  0
ACDBPLACEHOLDER
  5
F
102
{ACAD_REACTORS
330
E
102
}
330
E
  0
SCALE
  5
43
102
{ACAD_REACTORS
330
42
102
}
330
42
100
AcDbScale
 70
     0
300
1:1
140
1.0
141
1.0
290
     1
  0
SCALE
  5
44
102
{ACAD_REACTORS
330
42
102
}
330
42
100
AcDbScale
 70
     0
300
1/128" = 1'-0"
140
0.0078125
141
12.0
290
     0
  0
SCALE
  5
45
102
{ACAD_REACTORS
330
42
102
}
330
42
100
AcDbScale
 70
     0
300
1/64" = 1'-0"
140
0.015625
141
12.0
290
     0
  0
SCALE
  5
46
102
{ACAD_REACTORS
330
42
102
}
330
42
100
AcDbScale
 70
     0
300
1/32" = 1'-0"
140
0.03125
141
12.0
290
     0
  0
SCALE
  5
47
102
{ACAD_REACTORS
330
42
102
}
330
42
100
AcDbScale
 70
     0
300
1/16" = 1'-0"
140
0.0625
141
12.0
290
     0
  0
SCALE
  5
48
102
{ACAD_REACTORS
330
42
102
}
330
42
100
AcDbScale
 70
     0
300
3/32" = 1'-0"
140
0.09375
141
12.0
290
     0
  0
SCALE
  5
49
102
{ACAD_REACTORS
330
42
102
}
330
42
100
AcDbScale
 70
     0
300
1/8" = 1'-0"
140
0.125
141
12.0
290
     0
  0
SCALE
  5
4A
102
{ACAD_REACTORS
330
42
102
}
330
42
100
AcDbScale
 70
     0
300
3/16" = 1'-0"
140
0.1875
141
12.0
290
     0
  0
SCALE
  5
4B
102
{ACAD_REACTORS
330
42
102
}
330
42
100
AcDbScale
 70
     0
300
1/4" = 1'-0"
140
0.25
141
12.0
290
     0
  0
SCALE
  5
4C
102
{ACAD_REACTORS
330
42
102
}
330
42
100
AcDbScale
 70
     0
300
3/8" = 1'-0"
140
0.375
141
12.0
290
     0
  0
SCALE
  5
4D
102
{ACAD_REACTORS
330
42
102
}
330
42
100
AcDbScale
 70
     0
300
1/2" = 1'-0"
140
0.5
141
12.0
290
     0
  0
SCALE
  5
4E
102
{ACAD_REACTORS
330
42
102
}
330
42
100
AcDbScale
 70
     0
300
3/4" = 1'-0"
140
0.75
141
12.0
290
     0
  0
SCALE
  5
4F
102
{ACAD_REACTORS
330
42
102
}
330
42
100
AcDbScale
 70
     0
300
1" = 1'-0"
140
1.0
141
12.0
290
     0
  0
SCALE
  5
50
102
{ACAD_REACTORS
330
42
102
}
330
42
100
AcDbScale
 70
     0
300
1-1/2" = 1'-0"
140
1.5
141
12.0
290
     0
  0
SCALE
  5
51
102
{ACAD_REACTORS
330
42
102
}
330
42
100
AcDbScale
 70
     0
300
3" = 1'-0"
140
3.0
141
12.0
290
     0
  0
SCALE
  5
52
102
{ACAD_REACTORS
330
42
102
}
330
42
100
AcDbScale
 70
     0
300
6" = 1'-0"
140
6.0
141
12.0
290
     0
  0
SCALE
  5
53
102
{ACAD_REACTORS
330
42
102
}
330
42
100
AcDbScale
 70
     0
300
1'-0" = 1'-0"
140
12.0
141
12.0
290
     0
  0
ACDBSECTIONVIEWSTYLE
  5
69
102
{ACAD_REACTORS
330
68
102
}
330
68
100
AcDbModelDocViewStyle
 70
     0
  3
Imperial24
290
     1
300
Imperial24
 90
        0
100
AcDbSectionViewStyle
 70
     0
 71
     0
 90
       78
 71
     1
340
55
 62
   256
 40
0.24
340
0
340
0
 62
   256
 40
0.24
300
I, O, Q, S, X, Z
 40
0.48
 90
        3
 40
0.18
 90
        1
 71
     2
340
5D
 90
       25
 62
   256
340
5D
 90
       50
 62
   256
 40
0.24
 40
0.0
 40
0.24
 71
     3
340
55
 62
   256
 40
0.24
 90
        1
 40
0.75
 90
        1
300
%<\AcVar ViewType \f "%tc1">% %<\AcVar ViewSectionStartId>%-%<\AcVar ViewSectionEndId>%\PSCALE %<\AcVar ViewScale \f "%sn">%
 71
     4
 62
   256
 62
   257
300
ANSI31
 40
1.0
 90
        0
290
     0
290
     0
 90
        6
 40
0.0
 40
1.570796326794896
 40
0.2617993877991494
 40
1.308996938995747
 40
-0.2617993877991494
 40
1.832595714594046
  0
TABLESTYLE
  5
65
102
{ACAD_XDICTIONARY
360
A4
102
}
102
{ACAD_REACTORS
330
64
102
}
330
64
100
AcDbTableStyle
280
     0
  3
Standard
 70
     0
 71
     0
 40
0.06
 41
0.06
280
     0
281
     0
  7
Standard
140
0.18
170
     2
 62
     0
 63
     7
283
     0
 90
      512
 91
        0
  1

274
    -2
284
     1
 64
     0
275
    -2
285
     1
 65
     0
276
    -2
286
     1
 66
     0
277
    -2
287
     1
 67
     0
278
    -2
288
     1
 68
     0
279
    -2
289
     1
 69
     0
  7
Standard
140
0.25
170
     5
 62
     0
 63
     7
283
     0
 90
      512
 91
        0
  1

274
    -2
284
     1
 64
     0
275
    -2
285
     1
 65
     0
276
    -2
286
     1
 66
     0
277
    -2
287
     1
 67
     0
278
    -2
288
     1
 68
     0
279
    -2
289
     1
 69
     0
  7
Standard
140
0.18
170
     5
 62
     0
 63
     7
283
     0
 90
      512
 91
        0
  1

274
    -2
284
     1
 64
     0
275
    -2
285
     1
 65
     0
276
    -2
286
     1
 66
     0
277
    -2
287
     1
 67
     0
278
    -2
288
     1
 68
     0
279
    -2
289
     1
 69
     0
  0
VISUALSTYLE
  5
2F
102
{ACAD_REACTORS
330
29
102
}
330
29
100
AcDbVisualStyle
  2
2dWireframe
 70
     4
177
     3
291
     0
 70
    58
 90
        0
176
     1
 90
        2
176
     1
 90
        0
176
     1
 90
        0
176
     1
 40
0.6
176
     1
 40
30.0
176
     1
 62
     7
420
 16777215
176
     1
 90
        1
176
     1
 90
        4
176
     1
 62
     7
176
     1
 62
   257
176
     1
 90
        1
176
     1
 90
        1
176
     1
 40
1.0
176
     1
 90
        0
176
     1
 62
   257
176
     1
 40
1.0
176
     1
 90
        1
176
     1
 90
        6
176
     1
 90
        2
176
     1
 62
     7
176
     1
 90
        5
176
     1
 90
        0
176
     1
 90
        0
176
     1
290
     0
176
     1
 90
        1
176
     1
 40
0.0
176
     1
 90
        0
176
     1
290
     1
176
     1
290
     1
176
     1
290
     0
176
     1
290
     0
176
     1
290
     0
176
     1
290
     0
176
     1
290
     0
176
     1
290
     0
176
     1
290
     0
176
     1
 90
       50
176
     1
 40
0.0
176
     1
 40
1.0
176
     1
 90
        0
176
     1
 62
    18
420
        0
176
     1
 90
       50
176
     1
 90
        3
176
     1
 62
     5
420
      255
176
     1
290
     0
176
     1
 90
       50
176
     1
 90
       50
176
     1
 90
       50
176
     1
290
     0
176
     1
 90
       50
176
     1
 62
   256
176
     0
 40
1.0
176
     0
 90
        2
176
     1
  1
strokes_ogs.tif
176
     1
290
     0
176
     1
 40
1.0
176
     1
 40
1.0
176
     1
  0
VISUALSTYLE
  5
2E
102
{ACAD_REACTORS
330
29
102
}
330
29
100
AcDbVisualStyle
  2
Basic
 70
     7
177
     3
291
     1
 70
    58
 90
        1
176
     1
 90
        0
176
     1
 90
        1
176
     1
 90
        0
176
     1
 40
0.6
176
     1
 40
30.0
176
     1
 62
     7
420
 16777215
176
     1
 90
        0
176
     1
 90
        4
176
     1
 62
     7
176
     1
 62
   257
176
     1
 90
        1
176
     1
 90
        1
176
     1
 40
1.0
176
     1
 90
        8
176
     1
 62
     7
176
     1
 40
1.0
176
     1
 90
        1
176
     1
 90
        6
176
     1
 90
        2
176
     1
 62
     7
176
     1
 90
        5
176
     1
 90
        0
176
     1
 90
        0
176
     1
290
     0
176
     1
 90
        1
176
     1
 40
0.0
176
     1
 90
        0
176
     1
290
     0
176
     1
290
     1
176
     1
290
     1
176
     1
290
     0
176
     1
290
     0
176
     1
290
     0
176
     1
290
     0
176
     1
290
     0
176
     1
290
     0
176
     1
 90
       50
176
     1
 40
0.0
176
     1
 40
1.0
176
     1
 90
        0
176
     1
 62
    18
420
        0
176
     1
 90
       50
176
     1
 90
        3
176
     1
 62
     5
420
      255
176
     1
290
     0
176
     1
 90
       50
176
     1
 90
       50
176
     1
 90
       50
176
     1
290
     0
176
     1
 90
       50
176
     1
 62
   256
176
     0
 40
1.0
176
     0
 90
        2
176
     1
  1
strokes_ogs.tif
176
     1
290
     0
176
     1
 40
1.0
176
     1
 40
1.0
176
     1
  0
VISUALSTYLE
  5
35
102
{ACAD_REACTORS
330
29
102
}
330
29
100
AcDbVisualStyle
  2
Brighten
 70
    12
177
     3
291
     1
 70
    58
 90
        2
176
     1
 90
        2
176
     1
 90
        0
176
     1
 90
        0
176
     1
 40
0.6
176
     1
 40
30.0
176
     1
 62
     7
420
 16777215
176
     1
 90
        1
176
     1
 90
        4
176
     1
 62
     7
176
     1
 62
   257
176
     1
 90
        1
176
     1
 90
        1
176
     1
 40
1.0
176
     1
 90
        8
176
     1
 62
     7
176
     1
 40
1.0
176
     1
 90
        1
176
     1
 90
        6
176
     1
 90
        2
176
     1
 62
     7
176
     1
 90
        5
176
     1
 90
        0
176
     1
 90
        0
176
     1
290
     0
176
     1
 90
        1
176
     1
 40
50.0
176
     1
 90
        0
176
     1
290
     0
176
     1
290
     1
176
     1
290
     1
176
     1
290
     0
176
     1
290
     0
176
     1
290
     0
176
     1
290
     0
176
     1
290
     0
176
     1
290
     0
176
     1
 90
       50
176
     1
 40
0.0
176
     1
 40
1.0
176
     1
 90
        0
176
     1
 62
    18
420
        0
176
     1
 90
       50
176
     1
 90
        3
176
     1
 62
     5
420
      255
176
     1
290
     0
176
     1
 90
       50
176
     1
 90
       50
176
     1
 90
       50
176
     1
290
     0
176
     1
 90
       50
176
     1
 62
   256
176
     0
 40
1.0
176
     0
 90
        2
176
     1
  1
strokes_ogs.tif
176
     1
290
     0
176
     1
 40
1.0
176
     1
 40
1.0
176
     1
  0
VISUALSTYLE
  5
39
102
{ACAD_REACTORS
330
29
102
}
330
29
100
AcDbVisualStyle
  2
ColorChange
 70
    16
177
     3
291
     1
 70
    58
 90
        2
176
     1
 90
        2
176
     1
 90
        3
176
     1
 90
        0
176
     1
 40
0.6
176
     1
 40
30.0
176
     1
 62
     8
420
  8421504
176
     1
 90
        1
176
     1
 90
        4
176
     1
 62
     7
176
     1
 62
   257
176
     1
 90
        1
176
     1
 90
        1
176
     1
 40
1.0
176
     1
 90
        8
176
     1
 62
     8
420
  8421504
176
     1
 40
1.0
176
     1
 90
        1
176
     1
 90
        6
176
     1
 90
        2
176
     1
 62
     7
176
     1
 90
        5
176
     1
 90
        0
176
     1
 90
        0
176
     1
290
     0
176
     1
 90
        1
176
     1
 40
0.0
176
     1
 90
        0
176
     1
290
     0
176
     1
290
     1
176
     1
290
     1
176
     1
290
     0
176
     1
290
     0
176
     1
290
     0
176
     1
290
     0
176
     1
290
     0
176
     1
290
     0
176
     1
 90
       50
176
     1
 40
0.0
176
     1
 40
1.0
176
     1
 90
        0
176
     1
 62
    18
420
        0
176
     1
 90
       50
176
     1
 90
        3
176
     1
 62
     5
420
      255
176
     1
290
     0
176
     1
 90
       50
176
     1
 90
       50
176
     1
 90
       50
176
     1
290
     0
176
     1
 90
       50
176
     1
 62
   256
176
     0
 40
1.0
176
     0
 90
        2
176
     1
  1
strokes_ogs.tif
176
     1
290
     0
176
     1
 40
1.0
176
     1
 40
1.0
176
     1
  0
VISUALSTYLE
  5
32
102
{ACAD_REACTORS
330
29
102
}
330
29
100
AcDbVisualStyle
  2
Conceptual
 70
     9
177
     3
291
     0
 70
    58
 90
        3
176
     1
 90
        2
176
     1
 90
        0
176
     1
 90
        0
176
     1
 40
0.6
176
     1
 40
30.0
176
     1
 62
     7
420
 16777215
176
     1
 90
        2
176
     1
 90
        2
176
     1
 62
     7
176
     1
 62
   257
176
     1
 90
        1
176
     1
 90
        1
176
     1
 40
179.0
176
     1
 90
        8
176
     1
 62
     7
176
     1
 40
1.0
176
     1
 90
        1
176
     1
 90
        6
176
     1
 90
        2
176
     1
 62
     7
176
     1
 90
        3
176
     1
 90
        0
176
     1
 90
        0
176
     1
290
     0
176
     1
 90
        1
176
     1
 40
0.0
176
     1
 90
        0
176
     1
290
     0
176
     1
290
     1
176
     1
290
     1
176
     1
290
     0
176
     1
290
     0
176
     1
290
     0
176
     1
290
     0
176
     1
290
     0
176
     1
290
     0
176
     1
 90
       50
176
     1
 40
0.0
176
     1
 40
1.0
176
     1
 90
        0
176
     1
 62
    18
420
        0
176
     1
 90
       50
176
     1
 90
        3
176
     1
 62
     5
420
      255
176
     1
290
     0
176
     1
 90
       50
176
     1
 90
       50
176
     1
 90
       50
176
     1
290
     0
176
     1
 90
       50
176
     1
 62
   256
176
     0
 40
1.0
176
     0
 90
        2
176
     1
  1
strokes_ogs.tif
176
     1
290
     0
176
     1
 40
1.0
176
     1
 40
1.0
176
     1
  0
VISUALSTYLE
  5
34
102
{ACAD_REACTORS
330
29
102
}
330
29
100
AcDbVisualStyle
  2
Dim
 70
    11
177
     3
291
     1
 70
    58
 90
        2
176
     1
 90
        2
176
     1
 90
        0
176
     1
 90
        0
176
     1
 40
0.6
176
     1
 40
30.0
176
     1
 62
     7
420
 16777215
176
     1
 90
        1
176
     1
 90
        4
176
     1
 62
     7
176
     1
 62
   257
176
     1
 90
        1
176
     1
 90
        1
176
     1
 40
1.0
176
     1
 90
        8
176
     1
 62
     7
176
     1
 40
1.0
176
     1
 90
        1
176
     1
 90
        6
176
     1
 90
        2
176
     1
 62
     7
176
     1
 90
        5
176
     1
 90
        0
176
     1
 90
        0
176
     1
290
     0
176
     1
 90
        1
176
     1
 40
-50.0
176
     1
 90
        0
176
     1
290
     0
176
     1
290
     1
176
     1
290
     1
176
     1
290
     0
176
     1
290
     0
176
     1
290
     0
176
     1
290
     0
176
     1
290
     0
176
     1
290
     0
176
     1
 90
       50
176
     1
 40
0.0
176
     1
 40
1.0
176
     1
 90
        0
176
     1
 62
    18
420
        0
176
     1
 90
       50
176
     1
 90
        3
176
     1
 62
     5
420
      255
176
     1
290
     0
176
     1
 90
       50
176
     1
 90
       50
176
     1
 90
       50
176
     1
290
     0
176
     1
 90
       50
176
     1
 62
   256
176
     0
 40
1.0
176
     0
 90
        2
176
     1
  1
strokes_ogs.tif
176
     1
290
     0
176
     1
 40
1.0
176
     1
 40
1.0
176
     1
  0
VISUALSTYLE
  5
41
102
{ACAD_REACTORS
330
29
102
}
330
29
100
AcDbVisualStyle
  2
EdgeColorOff
 70
    22
177
     3
291
     1
 70
    58
 90
        2
176
     0
 90
        2
176
     0
 90
        0
176
     0
 90
        0
176
     0
 40
0.6
176
     0
 40
30.0
176
     0
 62
     7
420
 16777215
176
     0
 90
        1
176
     0
 90
        4
176
     0
 62
     7
176
     0
 62
   257
176
     0
 90
        1
176
     0
 90
        1
176
     0
 40
1.0
176
     0
 90
        8
176
     2
 62
     7
176
     0
 40
1.0
176
     0
 90
        1
176
     0
 90
        6
176
     0
 90
        2
176
     0
 62
     7
176
     0
 90
        5
176
     0
 90
        0
176
     0
 90
        0
176
     0
290
     0
176
     0
 90
        1
176
     0
 40
0.0
176
     0
 90
        0
176
     0
290
     0
176
     0
290
     1
176
     0
290
     1
176
     0
290
     0
176
     0
290
     0
176
     0
290
     0
176
     0
290
     0
176
     0
290
     0
176
     0
290
     0
176
     0
 90
       50
176
     0
 40
0.0
176
     0
 40
1.0
176
     0
 90
        0
176
     0
 62
    18
420
        0
176
     0
 90
       50
176
     0
 90
        3
176
     0
 62
     5
420
      255
176
     0
290
     0
176
     0
 90
       50
176
     0
 90
       50
176
     0
 90
       50
176
     0
290
     0
176
     0
 90
       50
176
     0
 62
   256
176
     0
 40
1.0
176
     0
 90
        2
176
     0
  1
strokes_ogs.tif
176
     0
290
     0
176
     0
 40
1.0
176
     0
 40
1.0
176
     0
  0
VISUALSTYLE
  5
38
102
{ACAD_REACTORS
330
29
102
}
330
29
100
AcDbVisualStyle
  2
Facepattern
 70
    15
177
     3
291
     1
 70
    58
 90
        2
176
     1
 90
        2
176
     1
 90
        0
176
     1
 90
        0
176
     1
 40
0.6
176
     1
 40
30.0
176
     1
 62
     7
420
 16777215
176
     1
 90
        1
176
     1
 90
        4
176
     1
 62
     7
176
     1
 62
   257
176
     1
 90
        1
176
     1
 90
        1
176
     1
 40
1.0
176
     1
 90
        8
176
     1
 62
     7
176
     1
 40
1.0
176
     1
 90
        1
176
     1
 90
        6
176
     1
 90
        2
176
     1
 62
     7
176
     1
 90
        5
176
     1
 90
        0
176
     1
 90
        0
176
     1
290
     0
176
     1
 90
        1
176
     1
 40
0.0
176
     1
 90
        0
176
     1
290
     0
176
     1
290
     1
176
     1
290
     1
176
     1
290
     0
176
     1
290
     0
176
     1
290
     0
176
     1
290
     0
176
     1
290
     0
176
     1
290
     0
176
     1
 90
       50
176
     1
 40
0.0
176
     1
 40
1.0
176
     1
 90
        0
176
     1
 62
    18
420
        0
176
     1
 90
       50
176
     1
 90
        3
176
     1
 62
     5
420
      255
176
     1
290
     0
176
     1
 90
       50
176
     1
 90
       50
176
     1
 90
       50
176
     1
290
     0
176
     1
 90
       50
176
     1
 62
   256
176
     0
 40
1.0
176
     0
 90
        2
176
     1
  1
strokes_ogs.tif
176
     1
290
     0
176
     1
 40
1.0
176
     1
 40
1.0
176
     1
  0
VISUALSTYLE
  5
2A
102
{ACAD_REACTORS
330
29
102
}
330
29
100
AcDbVisualStyle
  2
Flat
 70
     0
177
     3
291
     1
 70
    58
 90
        2
176
     1
 90
        1
176
     1
 90
        1
176
     1
 90
        2
176
     1
 40
0.6
176
     1
 40
30.0
176
     1
 62
     7
420
 16777215
176
     1
 90
        0
176
     1
 90
        0
176
     1
 62
     7
176
     1
 62
   257
176
     1
 90
        1
176
     1
 90
        1
176
     1
 40
1.0
176
     1
 90
        8
176
     1
 62
     7
176
     1
 40
1.0
176
     1
 90
        1
176
     1
 90
        6
176
     1
 90
        2
176
     1
 62
     7
176
     1
 90
        5
176
     1
 90
        0
176
     1
 90
        0
176
     1
290
     0
176
     1
 90
       13
176
     1
 40
0.0
176
     1
 90
        0
176
     1
290
     0
176
     1
290
     1
176
     1
290
     1
176
     1
290
     0
176
     1
290
     0
176
     1
290
     0
176
     1
290
     0
176
     1
290
     0
176
     1
290
     0
176
     1
 90
       50
176
     1
 40
0.0
176
     1
 40
1.0
176
     1
 90
        0
176
     1
 62
    18
420
        0
176
     1
 90
       50
176
     1
 90
        3
176
     1
 62
     5
420
      255
176
     1
290
     0
176
     1
 90
       50
176
     1
 90
       50
176
     1
 90
       50
176
     1
290
     0
176
     1
 90
       50
176
     1
 62
   256
176
     0
 40
1.0
176
     0
 90
        2
176
     1
  1
strokes_ogs.tif
176
     1
290
     0
176
     1
 40
1.0
176
     1
 40
1.0
176
     1
  0
VISUALSTYLE
  5
2B
102
{ACAD_REACTORS
330
29
102
}
330
29
100
AcDbVisualStyle
  2
FlatWithEdges
 70
     1
177
     3
291
     1
 70
    58
 90
        2
176
     1
 90
        1
176
     1
 90
        1
176
     1
 90
        2
176
     1
 40
0.6
176
     1
 40
30.0
176
     1
 62
     7
420
 16777215
176
     1
 90
        1
176
     1
 90
        0
176
     1
 62
     7
176
     1
 62
   257
176
     1
 90
        1
176
     1
 90
        1
176
     1
 40
1.0
176
     1
 90
        0
176
     1
 62
   257
176
     1
 40
1.0
176
     1
 90
        1
176
     1
 90
        6
176
     1
 90
        2
176
     1
 62
     7
176
     1
 90
        5
176
     1
 90
        0
176
     1
 90
        0
176
     1
290
     0
176
     1
 90
       13
176
     1
 40
0.0
176
     1
 90
        0
176
     1
290
     0
176
     1
290
     1
176
     1
290
     1
176
     1
290
     0
176
     1
290
     0
176
     1
290
     0
176
     1
290
     0
176
     1
290
     0
176
     1
290
     0
176
     1
 90
       50
176
     1
 40
0.0
176
     1
 40
1.0
176
     1
 90
        0
176
     1
 62
    18
420
        0
176
     1
 90
       50
176
     1
 90
        3
176
     1
 62
     5
420
      255
176
     1
290
     0
176
     1
 90
       50
176
     1
 90
       50
176
     1
 90
       50
176
     1
290
     0
176
     1
 90
       50
176
     1
 62
   256
176
     0
 40
1.0
176
     0
 90
        2
176
     1
  1
strokes_ogs.tif
176
     1
290
     0
176
     1
 40
1.0
176
     1
 40
1.0
176
     1
  0
VISUALSTYLE
  5
2C
102
{ACAD_REACTORS
330
29
102
}
330
29
100
AcDbVisualStyle
  2
Gouraud
 70
     2
177
     3
291
     1
 70
    58
 90
        2
176
     1
 90
        2
176
     1
 90
        1
176
     1
 90
        2
176
     1
 40
0.6
176
     1
 40
30.0
176
     1
 62
     7
420
 16777215
176
     1
 90
        0
176
     1
 90
        0
176
     1
 62
     7
176
     1
 62
   257
176
     1
 90
        1
176
     1
 90
        1
176
     1
 40
1.0
176
     1
 90
        0
176
     1
 62
     7
176
     1
 40
1.0
176
     1
 90
        1
176
     1
 90
        6
176
     1
 90
        2
176
     1
 62
     7
176
     1
 90
        5
176
     1
 90
        0
176
     1
 90
        0
176
     1
290
     0
176
     1
 90
       13
176
     1
 40
0.0
176
     1
 90
        0
176
     1
290
     0
176
     1
290
     1
176
     1
290
     1
176
     1
290
     0
176
     1
290
     0
176
     1
290
     0
176
     1
290
     0
176
     1
290
     0
176
     1
290
     0
176
     1
 90
       50
176
     1
 40
0.0
176
     1
 40
1.0
176
     1
 90
        0
176
     1
 62
    18
420
        0
176
     1
 90
       50
176
     1
 90
        3
176
     1
 62
     5
420
      255
176
     1
290
     0
176
     1
 90
       50
176
     1
 90
       50
176
     1
 90
       50
176
     1
290
     0
176
     1
 90
       50
176
     1
 62
   256
176
     0
 40
1.0
176
     0
 90
        2
176
     1
  1
strokes_ogs.tif
176
     1
290
     0
176
     1
 40
1.0
176
     1
 40
1.0
176
     1
  0
VISUALSTYLE
  5
2D
102
{ACAD_REACTORS
330
29
102
}
330
29
100
AcDbVisualStyle
  2
GouraudWithEdges
 70
     3
177
     3
291
     1
 70
    58
 90
        2
176
     1
 90
        2
176
     1
 90
        1
176
     1
 90
        2
176
     1
 40
0.6
176
     1
 40
30.0
176
     1
 62
     7
420
 16777215
176
     1
 90
        1
176
     1
 90
        0
176
     1
 62
     7
176
     1
 62
   257
176
     1
 90
        1
176
     1
 90
        1
176
     1
 40
1.0
176
     1
 90
        0
176
     1
 62
   257
176
     1
 40
1.0
176
     1
 90
        1
176
     1
 90
        6
176
     1
 90
        2
176
     1
 62
     7
176
     1
 90
        5
176
     1
 90
        0
176
     1
 90
        0
176
     1
290
     0
176
     1
 90
       13
176
     1
 40
0.0
176
     1
 90
        0
176
     1
290
     0
176
     1
290
     1
176
     1
290
     1
176
     1
290
     0
176
     1
290
     0
176
     1
290
     0
176
     1
290
     0
176
     1
290
     0
176
     1
290
     0
176
     1
 90
       50
176
     1
 40
0.0
176
     1
 40
1.0
176
     1
 90
        0
176
     1
 62
    18
420
        0
176
     1
 90
       50
176
     1
 90
        3
176
     1
 62
     5
420
      255
176
     1
290
     0
176
     1
 90
       50
176
     1
 90
       50
176
     1
 90
       50
176
     1
290
     0
176
     1
 90
       50
176
     1
 62
   256
176
     0
 40
1.0
176
     0
 90
        2
176
     1
  1
strokes_ogs.tif
176
     1
290
     0
176
     1
 40
1.0
176
     1
 40
1.0
176
     1
  0
VISUALSTYLE
  5
31
102
{ACAD_REACTORS
330
29
102
}
330
29
100
AcDbVisualStyle
  2
Hidden
 70
     6
177
     3
291
     0
 70
    58
 90
        1
176
     1
 90
        2
176
     1
 90
        2
176
     1
 90
        0
176
     1
 40
0.6
176
     1
 40
30.0
176
     1
 62
     7
420
 16777215
176
     1
 90
        2
176
     1
 90
        2
176
     1
 62
     7
176
     1
 62
   257
176
     1
 90
        2
176
     1
 90
        1
176
     1
 40
40.0
176
     1
 90
        0
176
     1
 62
   257
176
     1
 40
1.0
176
     1
 90
        1
176
     1
 90
        6
176
     1
 90
        2
176
     1
 62
     7
176
     1
 90
        3
176
     1
 90
        0
176
     1
 90
        0
176
     1
290
     0
176
     1
 90
        1
176
     1
 40
0.0
176
     1
 90
        0
176
     1
290
     0
176
     1
290
     1
176
     1
290
     1
176
     1
290
     0
176
     1
290
     0
176
     1
290
     0
176
     1
290
     0
176
     1
290
     0
176
     1
290
     0
176
     1
 90
       50
176
     1
 40
0.0
176
     1
 40
1.0
176
     1
 90
        0
176
     1
 62
    18
420
        0
176
     1
 90
       50
176
     1
 90
        3
176
     1
 62
     5
420
      255
176
     1
290
     0
176
     1
 90
       50
176
     1
 90
       50
176
     1
 90
       50
176
     1
290
     0
176
     1
 90
       50
176
     1
 62
   256
176
     0
 40
1.0
176
     0
 90
        2
176
     1
  1
strokes_ogs.tif
176
     1
290
     0
176
     1
 40
1.0
176
     1
 40
1.0
176
     1
  0
VISUALSTYLE
  5
3F
102
{ACAD_REACTORS
330
29
102
}
330
29
100
AcDbVisualStyle
  2
JitterOff
 70
    20
177
     3
291
     1
 70
    58
 90
        2
176
     0
 90
        2
176
     0
 90
        0
176
     0
 90
        0
176
     0
 40
0.6
176
     0
 40
30.0
176
     0
 62
     7
420
 16777215
176
     0
 90
        1
176
     0
 90
        4
176
     0
 62
     7
176
     0
 62
   257
176
     0
 90
        1
176
     0
 90
        1
176
     0
 40
1.0
176
     0
 90
       10
176
     2
 62
     7
176
     0
 40
1.0
176
     0
 90
        1
176
     0
 90
        6
176
     0
 90
        2
176
     0
 62
     7
176
     0
 90
        5
176
     0
 90
        0
176
     0
 90
        0
176
     0
290
     0
176
     0
 90
        1
176
     0
 40
0.0
176
     0
 90
        0
176
     0
290
     0
176
     0
290
     1
176
     0
290
     1
176
     0
290
     0
176
     0
290
     0
176
     0
290
     0
176
     0
290
     0
176
     0
290
     0
176
     0
290
     0
176
     0
 90
       50
176
     0
 40
0.0
176
     0
 40
1.0
176
     0
 90
        0
176
     0
 62
    18
420
        0
176
     0
 90
       50
176
     0
 90
        3
176
     0
 62
     5
420
      255
176
     0
290
     0
176
     0
 90
       50
176
     0
 90
       50
176
     0
 90
       50
176
     0
290
     0
176
     0
 90
       50
176
     0
 62
   256
176
     0
 40
1.0
176
     0
 90
        2
176
     0
  1
strokes_ogs.tif
176
     0
290
     0
176
     0
 40
1.0
176
     0
 40
1.0
176
     0
  0
VISUALSTYLE
  5
37
102
{ACAD_REACTORS
330
29
102
}
330
29
100
AcDbVisualStyle
  2
Linepattern
 70
    14
177
     3
291
     1
 70
    58
 90
        2
176
     1
 90
        2
176
     1
 90
        0
176
     1
 90
        0
176
     1
 40
0.6
176
     1
 40
30.0
176
     1
 62
     7
420
 16777215
176
     1
 90
        1
176
     1
 90
        4
176
     1
 62
     7
176
     1
 62
   257
176
     1
 90
        7
176
     1
 90
        7
176
     1
 40
1.0
176
     1
 90
        8
176
     1
 62
     7
176
     1
 40
1.0
176
     1
 90
        1
176
     1
 90
        6
176
     1
 90
        2
176
     1
 62
     7
176
     1
 90
        5
176
     1
 90
        0
176
     1
 90
        0
176
     1
290
     0
176
     1
 90
        1
176
     1
 40
0.0
176
     1
 90
        0
176
     1
290
     0
176
     1
290
     1
176
     1
290
     1
176
     1
290
     0
176
     1
290
     0
176
     1
290
     0
176
     1
290
     0
176
     1
290
     0
176
     1
290
     0
176
     1
 90
       50
176
     1
 40
0.0
176
     1
 40
1.0
176
     1
 90
        0
176
     1
 62
    18
420
        0
176
     1
 90
       50
176
     1
 90
        3
176
     1
 62
     5
420
      255
176
     1
290
     0
176
     1
 90
       50
176
     1
 90
       50
176
     1
 90
       50
176
     1
290
     0
176
     1
 90
       50
176
     1
 62
   256
176
     0
 40
1.0
176
     0
 90
        2
176
     1
  1
strokes_ogs.tif
176
     1
290
     0
176
     1
 40
1.0
176
     1
 40
1.0
176
     1
  0
VISUALSTYLE
  5
40
102
{ACAD_REACTORS
330
29
102
}
330
29
100
AcDbVisualStyle
  2
OverhangOff
 70
    21
177
     3
291
     1
 70
    58
 90
        2
176
     0
 90
        2
176
     0
 90
        0
176
     0
 90
        0
176
     0
 40
0.6
176
     0
 40
30.0
176
     0
 62
     7
420
 16777215
176
     0
 90
        1
176
     0
 90
        4
176
     0
 62
     7
176
     0
 62
   257
176
     0
 90
        1
176
     0
 90
        1
176
     0
 40
1.0
176
     0
 90
        9
176
     2
 62
     7
176
     0
 40
1.0
176
     0
 90
        1
176
     0
 90
        6
176
     0
 90
        2
176
     0
 62
     7
176
     0
 90
        5
176
     0
 90
        0
176
     0
 90
        0
176
     0
290
     0
176
     0
 90
        1
176
     0
 40
0.0
176
     0
 90
        0
176
     0
290
     0
176
     0
290
     1
176
     0
290
     1
176
     0
290
     0
176
     0
290
     0
176
     0
290
     0
176
     0
290
     0
176
     0
290
     0
176
     0
290
     0
176
     0
 90
       50
176
     0
 40
0.0
176
     0
 40
1.0
176
     0
 90
        0
176
     0
 62
    18
420
        0
176
     0
 90
       50
176
     0
 90
        3
176
     0
 62
     5
420
      255
176
     0
290
     0
176
     0
 90
       50
176
     0
 90
       50
176
     0
 90
       50
176
     0
290
     0
176
     0
 90
       50
176
     0
 62
   256
176
     0
 40
1.0
176
     0
 90
        2
176
     0
  1
strokes_ogs.tif
176
     0
290
     0
176
     0
 40
1.0
176
     0
 40
1.0
176
     0
  0
VISUALSTYLE
  5
33
102
{ACAD_REACTORS
330
29
102
}
330
29
100
AcDbVisualStyle
  2
Realistic
 70
     8
177
     3
291
     0
 70
    58
 90
        2
176
     1
 90
        3
176
     1
 90
        0
176
     1
 90
        2
176
     1
 40
0.6
176
     1
 40
30.0
176
     1
 62
     7
420
 16777215
176
     1
 90
        0
176
     1
 90
        0
176
     1
 62
     7
176
     1
 62
   257
176
     1
 90
        1
176
     1
 90
        1
176
     1
 40
1.0
176
     1
 90
        8
176
     1
 62
   257
176
     1
 40
1.0
176
     1
 90
        1
176
     1
 90
        6
176
     1
 90
        2
176
     1
 62
     7
176
     1
 90
        3
176
     1
 90
        0
176
     1
 90
        0
176
     1
290
     0
176
     1
 90
       13
176
     1
 40
0.0
176
     1
 90
        0
176
     1
290
     0
176
     1
290
     1
176
     1
290
     1
176
     1
290
     0
176
     1
290
     0
176
     1
290
     0
176
     1
290
     0
176
     1
290
     0
176
     1
290
     0
176
     1
 90
       50
176
     1
 40
0.0
176
     1
 40
1.0
176
     1
 90
        0
176
     1
 62
    18
420
        0
176
     1
 90
       50
176
     1
 90
        3
176
     1
 62
     5
420
      255
176
     1
290
     0
176
     1
 90
       50
176
     1
 90
       50
176
     1
 90
       50
176
     1
290
     0
176
     1
 90
       50
176
     1
 62
   256
176
     0
 40
1.0
176
     0
 90
        2
176
     1
  1
strokes_ogs.tif
176
     1
290
     0
176
     1
 40
1.0
176
     1
 40
1.0
176
     1
  0
VISUALSTYLE
  5
3E
102
{ACAD_REACTORS
330
29
102
}
330
29
100
AcDbVisualStyle
  2
Shaded
 70
    27
177
     3
291
     0
 70
    58
 90
        2
176
     1
 90
        2
176
     1
 90
        1
176
     1
 90
        2
176
     1
 40
0.6
176
     1
 40
30.0
176
     1
 62
     7
420
 16777215
176
     1
 90
        0
176
     1
 90
        4
176
     1
 62
     7
176
     1
 62
   257
176
     1
 90
        1
176
     1
 90
        1
176
     1
 40
1.0
176
     1
 90
        8
176
     1
 62
   257
176
     1
 40
1.0
176
     1
 90
        1
176
     1
 90
        6
176
     1
 90
        2
176
     1
 62
     8
420
  7895160
176
     1
 90
        3
176
     1
 90
        0
176
     1
 90
        0
176
     1
290
     0
176
     1
 90
        5
176
     1
 40
0.0
176
     1
 90
        0
176
     1
290
     0
176
     1
290
     1
176
     1
290
     1
176
     1
290
     0
176
     1
290
     0
176
     1
290
     0
176
     1
290
     0
176
     1
290
     0
176
     1
290
     0
176
     1
 90
       50
176
     1
 40
0.0
176
     1
 40
1.0
176
     1
 90
        0
176
     1
 62
    18
420
        0
176
     1
 90
       50
176
     1
 90
        3
176
     1
 62
     5
420
      255
176
     1
290
     0
176
     1
 90
       50
176
     1
 90
       50
176
     1
 90
       50
176
     1
290
     0
176
     1
 90
       50
176
     1
 62
   256
176
     0
 40
1.0
176
     0
 90
        2
176
     1
  1
strokes_ogs.tif
176
     1
290
     0
176
     1
 40
1.0
176
     1
 40
1.0
176
     1
  0
VISUALSTYLE
  5
3D
102
{ACAD_REACTORS
330
29
102
}
330
29
100
AcDbVisualStyle
  2
Shaded with edges
 70
    26
177
     3
291
     0
 70
    58
 90
        2
176
     1
 90
        2
176
     1
 90
        1
176
     1
 90
        2
176
     1
 40
0.6
176
     1
 40
30.0
176
     1
 62
     7
420
 16777215
176
     1
 90
        1
176
     1
 90
        2
176
     1
 62
     7
176
     1
 62
   257
176
     1
 90
        2
176
     1
 90
        1
176
     1
 40
1.0
176
     1
 90
        8
176
     1
 62
   257
176
     1
 40
1.0
176
     1
 90
        1
176
     1
 90
        6
176
     1
 90
        2
176
     1
 62
     7
176
     1
 90
        3
176
     1
 90
        0
176
     1
 90
        0
176
     1
290
     0
176
     1
 90
        5
176
     1
 40
0.0
176
     1
 90
        0
176
     1
290
     0
176
     1
290
     1
176
     1
290
     1
176
     1
290
     0
176
     1
290
     0
176
     1
290
     0
176
     1
290
     0
176
     1
290
     0
176
     1
290
     0
176
     1
 90
       50
176
     1
 40
0.0
176
     1
 40
1.0
176
     1
 90
        0
176
     1
 62
    18
420
        0
176
     1
 90
       50
176
     1
 90
        3
176
     1
 62
     5
420
      255
176
     1
290
     0
176
     1
 90
       50
176
     1
 90
       50
176
     1
 90
       50
176
     1
290
     0
176
     1
 90
       50
176
     1
 62
   256
176
     0
 40
1.0
176
     0
 90
        2
176
     1
  1
strokes_ogs.tif
176
     1
290
     0
176
     1
 40
1.0
176
     1
 40
1.0
176
     1
  0
VISUALSTYLE
  5
3A
102
{ACAD_REACTORS
330
29
102
}
330
29
100
AcDbVisualStyle
  2
Shades of Gray
 70
    23
177
     3
291
     0
 70
    58
 90
        2
176
     1
 90
        2
176
     1
 90
        3
176
     1
 90
        0
176
     1
 40
0.6
176
     1
 40
30.0
176
     1
 62
     7
420
 16777215
176
     1
 90
        2
176
     1
 90
        2
176
     1
 62
     7
176
     1
 62
     7
176
     1
 90
        1
176
     1
 90
        1
176
     1
 40
40.0
176
     1
 90
        8
176
     1
 62
     7
176
     1
 40
1.0
176
     1
 90
        1
176
     1
 90
        6
176
     1
 90
        2
176
     1
 62
     7
176
     1
 90
        3
176
     1
 90
        0
176
     1
 90
        0
176
     1
290
     0
176
     1
 90
        1
176
     1
 40
0.0
176
     1
 90
        0
176
     1
290
     0
176
     1
290
     1
176
     1
290
     1
176
     1
290
     0
176
     1
290
     0
176
     1
290
     0
176
     1
290
     0
176
     1
290
     0
176
     1
290
     0
176
     1
 90
       50
176
     1
 40
0.0
176
     1
 40
1.0
176
     1
 90
        0
176
     1
 62
    18
420
        0
176
     1
 90
       50
176
     1
 90
        3
176
     1
 62
     5
420
      255
176
     1
290
     0
176
     1
 90
       50
176
     1
 90
       50
176
     1
 90
       50
176
     1
290
     0
176
     1
 90
       50
176
     1
 62
   256
176
     0
 40
1.0
176
     0
 90
        2
176
     1
  1
strokes_ogs.tif
176
     1
290
     0
176
     1
 40
1.0
176
     1
 40
1.0
176
     1
  0
VISUALSTYLE
  5
3B
102
{ACAD_REACTORS
330
29
102
}
330
29
100
AcDbVisualStyle
  2
Sketchy
 70
    24
177
     3
291
     0
 70
    58
 90
        1
176
     1
 90
        2
176
     1
 90
        2
176
     1
 90
        0
176
     1
 40
0.6
176
     1
 40
30.0
176
     1
 62
     7
420
 16777215
176
     1
 90
        2
176
     1
 90
        2
176
     1
 62
     7
176
     1
 62
     7
176
     1
 90
        1
176
     1
 90
        1
176
     1
 40
40.0
176
     1
 90
       11
176
     1
 62
     7
176
     1
 40
1.0
176
     1
 90
        1
176
     1
 90
        6
176
     1
 90
        2
176
     1
 62
     7
176
     1
 90
        6
176
     1
 90
        0
176
     1
 90
        0
176
     1
290
     0
176
     1
 90
        1
176
     1
 40
0.0
176
     1
 90
        0
176
     1
290
     0
176
     1
290
     1
176
     1
290
     1
176
     1
290
     0
176
     1
290
     0
176
     1
290
     0
176
     1
290
     0
176
     1
290
     0
176
     1
290
     0
176
     1
 90
       50
176
     1
 40
0.0
176
     1
 40
1.0
176
     1
 90
        0
176
     1
 62
    18
420
        0
176
     1
 90
       50
176
     1
 90
        3
176
     1
 62
     5
420
      255
176
     1
290
     0
176
     1
 90
       50
176
     1
 90
       50
176
     1
 90
       50
176
     1
290
     0
176
     1
 90
       50
176
     1
 62
   256
176
     0
 40
1.0
176
     0
 90
        2
176
     1
  1
strokes_ogs.tif
176
     1
290
     0
176
     1
 40
1.0
176
     1
 40
1.0
176
     1
  0
VISUALSTYLE
  5
36
102
{ACAD_REACTORS
330
29
102
}
330
29
100
AcDbVisualStyle
  2
Thicken
 70
    13
177
     3
291
     1
 70
    58
 90
        2
176
     1
 90
        2
176
     1
 90
        0
176
     1
 90
        0
176
     1
 40
0.6
176
     1
 40
30.0
176
     1
 62
     7
420
 16777215
176
     1
 90
        1
176
     1
 90
        4
176
     1
 62
     7
176
     1
 62
   257
176
     1
 90
        1
176
     1
 90
        1
176
     1
 40
1.0
176
     1
 90
       12
176
     1
 62
     7
176
     1
 40
1.0
176
     1
 90
        1
176
     1
 90
        6
176
     1
 90
        2
176
     1
 62
     7
176
     1
 90
        5
176
     1
 90
        0
176
     1
 90
        0
176
     1
290
     0
176
     1
 90
        1
176
     1
 40
0.0
176
     1
 90
        0
176
     1
290
     0
176
     1
290
     1
176
     1
290
     1
176
     1
290
     0
176
     1
290
     0
176
     1
290
     0
176
     1
290
     0
176
     1
290
     0
176
     1
290
     0
176
     1
 90
       50
176
     1
 40
0.0
176
     1
 40
1.0
176
     1
 90
        0
176
     1
 62
    18
420
        0
176
     1
 90
       50
176
     1
 90
        3
176
     1
 62
     5
420
      255
176
     1
290
     0
176
     1
 90
       50
176
     1
 90
       50
176
     1
 90
       50
176
     1
290
     0
176
     1
 90
       50
176
     1
 62
   256
176
     0
 40
1.0
176
     0
 90
        2
176
     1
  1
strokes_ogs.tif
176
     1
290
     0
176
     1
 40
1.0
176
     1
 40
1.0
176
     1
  0
VISUALSTYLE
  5
30
102
{ACAD_REACTORS
330
29
102
}
330
29
100
AcDbVisualStyle
  2
Wireframe
 70
     5
177
     3
291
     0
 70
    58
 90
        0
176
     1
 90
        2
176
     1
 90
        0
176
     1
 90
        0
176
     1
 40
0.6
176
     1
 40
30.0
176
     1
 62
     7
420
 16777215
176
     1
 90
        1
176
     1
 90
        4
176
     1
 62
     7
176
     1
 62
   257
176
     1
 90
        1
176
     1
 90
        1
176
     1
 40
1.0
176
     1
 90
        0
176
     1
 62
   257
176
     1
 40
1.0
176
     1
 90
        1
176
     1
 90
        6
176
     1
 90
        2
176
     1
 62
     7
176
     1
 90
        3
176
     1
 90
        0
176
     1
 90
        0
176
     1
290
     0
176
     1
 90
        1
176
     1
 40
0.0
176
     1
 90
        0
176
     1
290
     0
176
     1
290
     1
176
     1
290
     1
176
     1
290
     0
176
     1
290
     0
176
     1
290
     0
176
     1
290
     0
176
     1
290
     0
176
     1
290
     0
176
     1
 90
       50
176
     1
 40
0.0
176
     1
 40
1.0
176
     1
 90
        0
176
     1
 62
    18
420
        0
176
     1
 90
       50
176
     1
 90
        3
176
     1
 62
     5
420
      255
176
     1
290
     0
176
     1
 90
       50
176
     1
 90
       50
176
     1
 90
       50
176
     1
290
     0
176
     1
 90
       50
176
     1
 62
   256
176
     0
 40
1.0
176
     0
 90
        2
176
     1
  1
strokes_ogs.tif
176
     1
290
     0
176
     1
 40
1.0
176
     1
 40
1.0
176
     1
  0
VISUALSTYLE
  5
3C
102
{ACAD_REACTORS
330
29
102
}
330
29
100
AcDbVisualStyle
  2
X-Ray
 70
    25
177
     3
291
     0
 70
    58
 90
        2
176
     1
 90
        2
176
     1
 90
        1
176
     1
 90
        1
176
     1
 40
0.5
176
     1
 40
30.0
176
     1
 62
     7
420
 16777215
176
     1
 90
        1
176
     1
 90
        0
176
     1
 62
     7
176
     1
 62
   257
176
     1
 90
        1
176
     1
 90
        1
176
     1
 40
1.0
176
     1
 90
        8
176
     1
 62
     7
176
     1
 40
1.0
176
     1
 90
        1
176
     1
 90
        6
176
     1
 90
        2
176
     1
 62
     7
176
     1
 90
        3
176
     1
 90
        0
176
     1
 90
        0
176
     1
290
     0
176
     1
 90
       13
176
     1
 40
0.0
176
     1
 90
        0
176
     1
290
     0
176
     1
290
     1
176
     1
290
     1
176
     1
290
     0
176
     1
290
     0
176
     1
290
     0
176
     1
290
     0
176
     1
290
     0
176
     1
290
     0
176
     1
 90
       50
176
     1
 40
0.0
176
     1
 40
1.0
176
     1
 90
        0
176
     1
 62
    18
420
        0
176
     1
 90
       50
176
     1
 90
        3
176
     1
 62
     5
420
      255
176
     1
290
     0
176
     1
 90
       50
176
     1
 90
       50
176
     1
 90
       50
176
     1
290
     0
176
     1
 90
       50
176
     1
 62
   256
176
     0
 40
1.0
176
     0
 90
        2
176
     1
  1
strokes_ogs.tif
176
     1
290
     0
176
     1
 40
1.0
176
     1
 40
1.0
176
     1
  0
DICTIONARYVAR
  5
A3
102
{ACAD_REACTORS
330
9E
102
}
330
9E
100
DictionaryVariables
280
     0
  1
1:1
  0
DICTIONARYVAR
  5
A0
102
{ACAD_REACTORS
330
9E
102
}
330
9E
100
DictionaryVariables
280
     0
  1
STANDARD
  0
DICTIONARYVAR
  5
9F
102
{ACAD_REACTORS
330
9E
102
}
330
9E
100
DictionaryVariables
280
     0
  1
STANDARD
  0
DICTIONARYVAR
  5
A1
102
{ACAD_REACTORS
330
9E
102
}
330
9E
100
DictionaryVariables
280
     0
  1
Imperial24
  0
DICTIONARYVAR
  5
A2
102
{ACAD_REACTORS
330
9E
102
}
330
9E
100
DictionaryVariables
280
     0
  1
Imperial24
  0
DICTIONARY
  5
1A
330
19
100
AcDbDictionary
280
     1
281
     1
  3
BUMPTILE
360
1C
  3
DIFFUSETILE
360
1B
  3
OPACITYTILE
360
1F
  3
REFLECTIONTILE
360
1E
  3
REFRACTIONTILE
360
20
  3
SPECULARTILE
360
1D
  0
DICTIONARY
  5
12
330
11
100
AcDbDictionary
280
     1
281
     1
  3
BUMPTILE
360
14
  3
DIFFUSETILE
360
13
  3
OPACITYTILE
360
17
  3
REFLECTIONTILE
360
16
  3
REFRACTIONTILE
360
18
  3
SPECULARTILE
360
15
  0
DICTIONARY
  5
22
330
21
100
AcDbDictionary
280
     1
281
     1
  3
BUMPTILE
360
24
  3
DIFFUSETILE
360
23
  3
OPACITYTILE
360
27
  3
REFLECTIONTILE
360
26
  3
REFRACTIONTILE
360
28
  3
SPECULARTILE
360
25
  0
DICTIONARY
  5
A4
330
65
100
AcDbDictionary
280
     1
281
     1
  3
ACAD_ROUNDTRIP_2008_TABLESTYLE_CELLSTYLEMAP
360
A5
  0
XRECORD
  5
1C
102
{ACAD_REACTORS
330
1A
102
}
330
1A
100
AcDbXrecord
280
     1
270
     1
271
     1
  0
XRECORD
  5
1B
102
{ACAD_REACTORS
330
1A
102
}
330
1A
100
AcDbXrecord
280
     1
270
     1
271
     1
  0
XRECORD
  5
1F
102
{ACAD_REACTORS
330
1A
102
}
330
1A
100
AcDbXrecord
280
     1
270
     1
271
     1
  0
XRECORD
  5
1E
102
{ACAD_REACTORS
330
1A
102
}
330
1A
100
AcDbXrecord
280
     1
270
     1
271
     1
  0
XRECORD
  5
20
102
{ACAD_REACTORS
330
1A
102
}
330
1A
100
AcDbXrecord
280
     1
270
     1
271
     1
  0
XRECORD
  5
1D
102
{ACAD_REACTORS
330
1A
102
}
330
1A
100
AcDbXrecord
280
     1
270
     1
271
     1
  0
XRECORD
  5
14
102
{ACAD_REACTORS
330
12
102
}
330
12
100
AcDbXrecord
280
     1
270
     1
271
     1
  0
XRECORD
  5
13
102
{ACAD_REACTORS
330
12
102
}
330
12
100
AcDbXrecord
280
     1
270
     1
271
     1
  0
XRECORD
  5
17
102
{ACAD_REACTORS
330
12
102
}
330
12
100
AcDbXrecord
280
     1
270
     1
271
     1
  0
XRECORD
  5
16
102
{ACAD_REACTORS
330
12
102
}
330
12
100
AcDbXrecord
280
     1
270
     1
271
     1
  0
XRECORD
  5
18
102
{ACAD_REACTORS
330
12
102
}
330
12
100
AcDbXrecord
280
     1
270
     1
271
     1
  0
XRECORD
  5
15
102
{ACAD_REACTORS
330
12
102
}
330
12
100
AcDbXrecord
280
     1
270
     1
271
     1
  0
XRECORD
  5
24
102
{ACAD_REACTORS
330
22
102
}
330
22
100
AcDbXrecord
280
     1
270
     1
271
     1
  0
XRECORD
  5
23
102
{ACAD_REACTORS
330
22
102
}
330
22
100
AcDbXrecord
280
     1
270
     1
271
     1
  0
XRECORD
  5
27
102
{ACAD_REACTORS
330
22
102
}
330
22
100
AcDbXrecord
280
     1
270
     1
271
     1
  0
XRECORD
  5
26
102
{ACAD_REACTORS
330
22
102
}
330
22
100
AcDbXrecord
280
     1
270
     1
271
     1
  0
XRECORD
  5
28
102
{ACAD_REACTORS
330
22
102
}
330
22
100
AcDbXrecord
280
     1
270
     1
271
     1
  0
XRECORD
  5
25
102
{ACAD_REACTORS
330
22
102
}
330
22
100
AcDbXrecord
280
     1
270
     1
271
     1
  0
CELLSTYLEMAP
  5
A5
102
{ACAD_REACTORS
330
A4
102
}
330
A4
100
AcDbCellStyleMap
 90
        3
300
CELLSTYLE
  1
TABLEFORMAT_BEGIN
 90
        5
170
     1
 91
        0
 92
    32768
 62
   257
 93
        1
300
CONTENTFORMAT
  1
CONTENTFORMAT_BEGIN
 90
        0
 91
        0
 92
      512
 93
        0
300

 40
0.0
140
1.0
 94
        5
 62
     0
340
55
144
0.25
309
CONTENTFORMAT_END
171
     0
 94
        0
309
TABLEFORMAT_END
  1
CELLSTYLE_BEGIN
 90
        1
 91
        1
300
_TITLE
309
CELLSTYLE_END
300
CELLSTYLE
  1
TABLEFORMAT_BEGIN
 90
        5
170
     1
 91
        0
 92
        0
 62
   257
 93
        1
300
CONTENTFORMAT
  1
CONTENTFORMAT_BEGIN
 90
        0
 91
        0
 92
      512
 93
        0
300

 40
0.0
140
1.0
 94
        5
 62
     0
340
55
144
0.18
309
CONTENTFORMAT_END
171
     0
 94
        0
309
TABLEFORMAT_END
  1
CELLSTYLE_BEGIN
 90
        2
 91
        1
300
_HEADER
309
CELLSTYLE_END
300
CELLSTYLE
  1
TABLEFORMAT_BEGIN
 90
        5
170
     1
 91
        0
 92
        0
 62
   257
 93
        1
300
CONTENTFORMAT
  1
CONTENTFORMAT_BEGIN
 90
        0
 91
        0
 92
      512
 93
        0
300

 40
0.0
140
1.0
 94
        2
 62
     0
340
55
144
0.18
309
CONTENTFORMAT_END
171
     0
 94
        0
309
TABLEFORMAT_END
  1
CELLSTYLE_BEGIN
 90
        3
 91
        2
300
_DATA
309
CELLSTYLE_END
  0
ENDSEC
  0
EOF
